<svg xmlns="http://www.w3.org/2000/svg" viewBox="0 0 819.67 194.45"><defs><style>.cls-1{fill:#59b9df;}.cls-2{fill:#f7aa12;}.cls-3{fill:#55606c;}</style></defs><g id="Слой_2" data-name="Слой 2"><g id="Слой_1-2" data-name="Слой 1"><path class="cls-1" d="M115.61,194.45h75.06a7.16,7.16,0,0,0,7.14-7.14V111.14h-5a7.15,7.15,0,0,0-7.14,7.13v56.87a7.14,7.14,0,0,1-7.13,7.13H122.75a7.16,7.16,0,0,0-7.14,7.14ZM82.2,1H7.14A7.15,7.15,0,0,0,0,8.13V84.3H5.05a7.15,7.15,0,0,0,7.13-7.14V20.3a7.15,7.15,0,0,1,7.14-7.13H75.07A7.15,7.15,0,0,0,82.2,6Z"/><path class="cls-2" d="M58,182H54.5l.17-.17,1-1,1.31.65c.37.18.73.35,1.09.5M0,112v75.06a7.15,7.15,0,0,0,7.14,7.13H83.31v-5A7.16,7.16,0,0,0,76.17,182H72.76a13.26,13.26,0,0,0,6-7A19.48,19.48,0,0,0,79,161.89a24.19,24.19,0,0,0-5.72-9.26c-.55-.58-1.19-1.29-1.42-1.58a26,26,0,0,1-2.47-3.93,20.91,20.91,0,0,1-2.49-10.46,16.63,16.63,0,0,1,1-5.43c.57-1.58,2.13-4.4,2.39-4.29,0,0,.38.13.71.24,2.35.75,5.63-1.28,6.16-3.82A2.13,2.13,0,0,0,76,120.89c-1.51-.66-4.3.29-5.49,1.88-.19.26-.68.88-1.08,1.38a21.2,21.2,0,0,0-4.67,10,27.35,27.35,0,0,0,0,6A26.41,26.41,0,0,0,71.57,154,21.72,21.72,0,0,1,75.81,160a18.23,18.23,0,0,1,1.87,6.09,21.73,21.73,0,0,1-.18,5,14,14,0,0,1-2,4.84,15.6,15.6,0,0,1-3,3c-3.23,2.27-7.13,2.67-11.63,1.2a23.4,23.4,0,0,1-3.73-1.68s.25-.46.55-.95a20.13,20.13,0,0,0,2.54-6.92c1-6.07-1.54-18.32-7.41-36-1.19-3.57-2.84-8.28-4.1-11.72-.41-1.13-.76-2.08-.76-2.12a2.45,2.45,0,0,1,.62-.35,16.66,16.66,0,0,0,6.73-6.16l.45-.76L58.19,116l2.47,2.53.2-.2a.61.61,0,0,0,.21-.29,6.77,6.77,0,0,0-.89-1c-.48-.48-1.64-1.67-2.56-2.62l-1.68-1.74.18-.35a2.06,2.06,0,0,1,.26-.4s1.91.77,4.16,1.76l4.11,1.81a3,3,0,0,0,.3-.74s-1.8-.8-4-1.73-4-1.74-4.11-1.81l-.19-.09.18-.47.18-.46H67.25v-.71h-5c-2.76,0-5,0-5-.07s.06-.38.13-.79a16,16,0,0,0-1.69-9.9,16.29,16.29,0,0,0-1.91-2.85c-.53-.63-.57-.72-.63-1.23,0-.31-.36-2.17-.71-4.14-.74-4.09-1.05-6.09-1.19-7.66-.06-.61-.11-1.12-.13-1.13a4.85,4.85,0,0,0-.22.69,36.82,36.82,0,0,1-1.43,4A40.32,40.32,0,0,1,47,91.24s-.35-.09-.67-.18a14.45,14.45,0,0,0-4.12-.67,15.62,15.62,0,0,0-5.92.86,7.53,7.53,0,0,1-.85.25s-.31-.56-.65-1.2A46.38,46.38,0,0,1,31.63,83l-.45-1.39-.11,1.21c-.14,1.5-.39,3.11-1.07,6.89-.59,3.23-.84,4.82-.93,5.88a1.93,1.93,0,0,1-.58,1.4,16.47,16.47,0,0,0-2.79,6.51,19,19,0,0,0-.17,2.31,13.9,13.9,0,0,0,.21,3.36l.05.33h-9.2v.71h9.48l.19.56c.1.3.19.6.22.66a27.6,27.6,0,0,1-3.72,1.75c-2.06.9-3.78,1.66-3.82,1.71s.19.7.29.7,1.73-.75,3.8-1.66l3.74-1.66.2.41a6.11,6.11,0,0,1,.24.59c.06.15-.34.6-2.19,2.5-1.24,1.27-2.26,2.34-2.26,2.38a.89.89,0,0,0,.22.26l.21.19,1.71-1.74c.94-1,1.91-2,2.15-2.22l.45-.48.45.75a15.67,15.67,0,0,0,6.4,5.77,4.9,4.9,0,0,1,.95.55s-.46,1.37-1,3c-4.49,12.79-8.12,24.58-9.9,32.18-1.53,6.49-2,10.66-1.69,13.84A18.73,18.73,0,0,0,28.63,182H19.32a7.15,7.15,0,0,1-7.14-7.13V119.13A7.14,7.14,0,0,0,5.05,112ZM197.81,82.2V7.13A7.16,7.16,0,0,0,190.67,0H114.51V5a7.15,7.15,0,0,0,7.13,7.14H178.5a7.14,7.14,0,0,1,7.13,7.13V75.07a7.16,7.16,0,0,0,7.14,7.13Z"/><path class="cls-3" d="M718.05,18.56h20.4V120h-20.4V77.26L699.35,120H677.5V18.56h20.27V72.92l20.28-46.33Zm-64.9,20.27L637.22,69.37l15.93,30.4h4.08V120H647.09a9.92,9.92,0,0,1-5.26-1.44,10,10,0,0,1-3.69-3.95L619.58,79.5h-2.89V120H596.28V79.5h-2.89l-18.56,35.15a10,10,0,0,1-3.69,3.95,9.92,9.92,0,0,1-5.26,1.44H555.74V99.77h4l16.06-30.4L559.69,38.83h-4V18.56h10.14A9.92,9.92,0,0,1,571.14,20,10,10,0,0,1,574.83,24L593.39,59.1h2.89V18.56h20.41V59.1h2.89L638.14,24A10,10,0,0,1,641.83,20a9.92,9.92,0,0,1,5.26-1.44h10.14V38.83ZM494.79,99.77h20.28V38.83H494.79ZM515.07,120H494.79a19.85,19.85,0,0,1-7.89-1.57,20.38,20.38,0,0,1-10.8-10.8,19.9,19.9,0,0,1-1.58-7.9V38.83a19.9,19.9,0,0,1,1.58-7.9,20.38,20.38,0,0,1,10.8-10.8,19.85,19.85,0,0,1,7.89-1.57h20.28A19.85,19.85,0,0,1,523,20.13a20.5,20.5,0,0,1,6.45,4.35,21,21,0,0,1,4.41,6.45,19.12,19.12,0,0,1,1.65,7.9V99.77a19.12,19.12,0,0,1-1.65,7.9,21,21,0,0,1-4.41,6.45,20.5,20.5,0,0,1-6.45,4.35A19.85,19.85,0,0,1,515.07,120ZM413.58,59.1h15.27V38.83H413.58Zm0,20.4V99.77h20.27V79.5ZM393.3,120V18.56h35.55a19.85,19.85,0,0,1,7.89,1.57,20.38,20.38,0,0,1,10.8,10.8,19.9,19.9,0,0,1,1.58,7.9V59.1a19.14,19.14,0,0,1-.92,6.05,21.61,21.61,0,0,1,4.41,6.45,19.27,19.27,0,0,1,1.64,7.9V99.77a19.27,19.27,0,0,1-1.64,7.9,21.36,21.36,0,0,1-4.41,6.45,20.72,20.72,0,0,1-6.45,4.35,19.9,19.9,0,0,1-7.9,1.57ZM332.36,99.77h20.27V38.83H332.36ZM352.63,120H332.36a19.9,19.9,0,0,1-7.9-1.57,20.32,20.32,0,0,1-10.79-10.8,19.73,19.73,0,0,1-1.58-7.9V38.83a19.73,19.73,0,0,1,1.58-7.9,20.32,20.32,0,0,1,10.79-10.8,19.9,19.9,0,0,1,7.9-1.57h20.27a19.9,19.9,0,0,1,7.9,1.57A20.72,20.72,0,0,1,367,24.48a21.36,21.36,0,0,1,4.41,6.45,19.27,19.27,0,0,1,1.64,7.9V99.77a19.27,19.27,0,0,1-1.64,7.9,21.36,21.36,0,0,1-4.41,6.45,20.72,20.72,0,0,1-6.45,4.35A19.9,19.9,0,0,1,352.63,120ZM271.41,18.56h20.4V120h-20.4V79.5H251.14V120H230.87V18.56h20.27V59.1h20.27ZM819.67,120H799.26V38.83H779V99.77a19.73,19.73,0,0,1-1.58,7.9,20.32,20.32,0,0,1-10.79,10.8,19.9,19.9,0,0,1-7.9,1.57H748.59V99.77h10.13V38.83a19.9,19.9,0,0,1,1.58-7.9,20.3,20.3,0,0,1,4.34-6.45,20.72,20.72,0,0,1,6.45-4.35,19.9,19.9,0,0,1,7.9-1.57h40.68Z"/><polygon class="cls-3" points="819.67 158.39 814.26 158.39 806.03 173.54 805.94 173.54 805.94 158.39 801.15 158.39 801.15 180.27 806.56 180.27 814.78 165.09 814.88 165.09 814.88 180.27 819.67 180.27 819.67 158.39"/><polygon class="cls-3" points="792.98 158.39 775.02 158.39 775.02 162.48 781.59 162.48 781.59 180.27 786.41 180.27 786.41 162.48 792.98 162.48 792.98 158.39"/><path class="cls-3" d="M767.87,171.82h-4.76a6.14,6.14,0,0,1-1.57,3.66,4.75,4.75,0,0,1-3.44,1.26,5.3,5.3,0,0,1-3.06-.92,5.77,5.77,0,0,1-2-2.56,10.21,10.21,0,0,1-.71-3.93,11.24,11.24,0,0,1,.21-2.17,8.15,8.15,0,0,1,.64-2,6,6,0,0,1,1.12-1.67,4.79,4.79,0,0,1,1.64-1.14,6.09,6.09,0,0,1,4.52,0,4.31,4.31,0,0,1,1.65,1.3,4.84,4.84,0,0,1,.9,2.06h4.7a8,8,0,0,0-.89-3.13,8.42,8.42,0,0,0-2-2.49,9.39,9.39,0,0,0-2.93-1.63,11.05,11.05,0,0,0-3.63-.59,11.7,11.7,0,0,0-3.69.58,9.89,9.89,0,0,0-3,1.61,10,10,0,0,0-2.21,2.47,11.23,11.23,0,0,0-1.38,3.14,13.43,13.43,0,0,0-.48,3.63,14.23,14.23,0,0,0,.76,4.71,10.27,10.27,0,0,0,2.14,3.63,9.42,9.42,0,0,0,3.33,2.33,11.14,11.14,0,0,0,4.33.82,11.43,11.43,0,0,0,4-.65,8.45,8.45,0,0,0,3-1.83,8.65,8.65,0,0,0,1.94-2.83,12,12,0,0,0,.9-3.66"/><path class="cls-3" d="M728.63,161.8a5.52,5.52,0,0,1,3.16.92,5.8,5.8,0,0,1,2,2.57,10,10,0,0,1,.72,4,10.5,10.5,0,0,1-.71,4,5.93,5.93,0,0,1-2,2.6,5.42,5.42,0,0,1-3.13.92,5.45,5.45,0,0,1-5.26-3.52,10.41,10.41,0,0,1-.73-4,10.18,10.18,0,0,1,.73-4,5.84,5.84,0,0,1,2.05-2.58,5.47,5.47,0,0,1,3.15-.93m.06-3.93a11.88,11.88,0,0,0-4.45.82,9.69,9.69,0,0,0-3.42,2.32,10.4,10.4,0,0,0-2.2,3.63,14,14,0,0,0-.77,4.72,13.59,13.59,0,0,0,.78,4.68,10.38,10.38,0,0,0,2.19,3.61,9.69,9.69,0,0,0,3.42,2.32,11.56,11.56,0,0,0,4.42.82A11.39,11.39,0,0,0,733,180a9.63,9.63,0,0,0,3.39-2.34,10.26,10.26,0,0,0,2.2-3.6,14.58,14.58,0,0,0,0-9.35,10.53,10.53,0,0,0-2.19-3.63,9.66,9.66,0,0,0-3.38-2.35A11.38,11.38,0,0,0,728.69,157.87Z"/><polygon class="cls-3" points="685.3 180.27 689.88 180.27 689.88 164.88 695.31 180.27 699.03 180.27 704.4 164.72 704.4 180.27 708.91 180.27 708.91 158.39 702.22 158.39 697.25 173.42 692.15 158.39 685.3 158.39 685.3 180.27"/><polygon class="cls-3" points="675.41 158.39 670.01 158.39 661.78 173.54 661.69 173.54 661.69 158.39 656.9 158.39 656.9 180.27 662.3 180.27 670.53 165.09 670.62 165.09 670.62 180.27 675.41 180.27 675.41 158.39"/><polygon class="cls-3" points="628.28 170.75 630.65 173.42 630.65 180.27 635.25 180.27 635.25 173.42 637.62 170.75 643.45 180.27 649.41 180.27 640.66 167.34 648.61 158.39 642.84 158.39 635.25 167.34 635.25 158.39 630.65 158.39 630.65 167.34 623.07 158.39 617.29 158.39 625.24 167.34 616.5 180.27 622.42 180.27 628.28 170.75"/><polygon class="cls-3" points="609 158.39 603.6 158.39 595.37 173.54 595.28 173.54 595.28 158.39 590.49 158.39 590.49 180.27 595.89 180.27 604.12 165.09 604.21 165.09 604.21 180.27 609 180.27 609 158.39"/><path class="cls-3" d="M567.86,170.5h4.57a11.67,11.67,0,0,1,1.58.09,4.54,4.54,0,0,1,1.38.41,2.33,2.33,0,0,1,1,.9,3.13,3.13,0,0,1,.37,1.58,3.34,3.34,0,0,1-.34,1.56,2.38,2.38,0,0,1-.91.9,4.14,4.14,0,0,1-1.3.42,9.22,9.22,0,0,1-1.5.1h-4.82Zm0-8.39h4.36a9.73,9.73,0,0,1,1.34.09,3.76,3.76,0,0,1,1.16.37,2,2,0,0,1,.81.79,2.72,2.72,0,0,1,.31,1.33,2.56,2.56,0,0,1-.32,1.33,2,2,0,0,1-.84.78,4.14,4.14,0,0,1-1.16.36,8,8,0,0,1-1.3.08h-4.36Zm-4.67-3.72v21.88h10.93a9.61,9.61,0,0,0,2.89-.42,7,7,0,0,0,2.35-1.23,5.79,5.79,0,0,0,1.58-2,6.76,6.76,0,0,0,.58-2.82,6.17,6.17,0,0,0-.53-2.6,4.71,4.71,0,0,0-1.42-1.75,5.72,5.72,0,0,0-2-1,5.35,5.35,0,0,0,1.56-1,4.72,4.72,0,0,0,1-1.53,5,5,0,0,0,.38-1.94,5.51,5.51,0,0,0-.55-2.49,4.68,4.68,0,0,0-1.5-1.71,6.79,6.79,0,0,0-2.22-1,11.1,11.1,0,0,0-2.7-.32Z"/><path class="cls-3" d="M547.75,176.18h-8.94a19.79,19.79,0,0,0,1.27-2.76,22.5,22.5,0,0,0,.92-3.07,29.63,29.63,0,0,0,.54-3.54,40.94,40.94,0,0,0,.19-4.15v-.36h6Zm7.21,9.71v-9.71h-2.43V158.39H537v3.32a47.47,47.47,0,0,1-.33,5.86,23.18,23.18,0,0,1-1.12,4.77,14.7,14.7,0,0,1-2,3.84h-1.66v9.71h4.64v-5.62h13.87v5.62Z"/><polygon class="cls-3" points="524.53 158.39 508.14 158.39 508.14 180.27 524.74 180.27 524.74 176.25 512.89 176.25 512.89 170.87 523.58 170.87 523.58 167.09 512.89 167.09 512.89 162.33 524.53 162.33 524.53 158.39"/><polygon class="cls-3" points="498.25 158.39 493.46 158.39 493.46 166.63 484.52 166.63 484.52 158.39 479.73 158.39 479.73 180.27 484.52 180.27 484.52 170.84 493.46 170.84 493.46 180.27 498.25 180.27 498.25 158.39"/><path class="cls-3" d="M451.49,161.8a5.52,5.52,0,0,1,3.16.92,5.8,5.8,0,0,1,2,2.57,10.36,10.36,0,0,1,.72,4,10.49,10.49,0,0,1-.72,4,5.84,5.84,0,0,1-2,2.6,5.42,5.42,0,0,1-3.13.92,5.45,5.45,0,0,1-5.26-3.52,10.41,10.41,0,0,1-.73-4,10.18,10.18,0,0,1,.73-4,5.84,5.84,0,0,1,2-2.58,5.47,5.47,0,0,1,3.15-.93m.06-3.93a11.88,11.88,0,0,0-4.45.82,9.69,9.69,0,0,0-3.42,2.32,10.4,10.4,0,0,0-2.2,3.63,14,14,0,0,0-.77,4.72,13.59,13.59,0,0,0,.78,4.68,10.38,10.38,0,0,0,2.19,3.61A9.69,9.69,0,0,0,447.1,180a11.53,11.53,0,0,0,4.42.82,11.39,11.39,0,0,0,4.38-.82,9.63,9.63,0,0,0,3.39-2.34,10.1,10.1,0,0,0,2.19-3.6,14.4,14.4,0,0,0,0-9.35,10.35,10.35,0,0,0-2.18-3.63,9.66,9.66,0,0,0-3.38-2.35A11.38,11.38,0,0,0,451.55,157.87Z"/><path class="cls-3" d="M419,170.5h4.57a11.82,11.82,0,0,1,1.59.09,4.56,4.56,0,0,1,1.37.41,2.22,2.22,0,0,1,1,.9,2.93,2.93,0,0,1,.37,1.58,3.11,3.11,0,0,1-.34,1.56,2.32,2.32,0,0,1-.91.9,4,4,0,0,1-1.3.42,9.15,9.15,0,0,1-1.5.1H419Zm0-8.39h4.36a9.62,9.62,0,0,1,1.34.09,3.68,3.68,0,0,1,1.16.37,2,2,0,0,1,.82.79,2.73,2.73,0,0,1,.3,1.33,2.47,2.47,0,0,1-.32,1.33,2.08,2.08,0,0,1-.83.78,4.21,4.21,0,0,1-1.17.36,8,8,0,0,1-1.3.08H419Zm-4.67-3.72v21.88h10.93a9.63,9.63,0,0,0,2.9-.42,7.21,7.21,0,0,0,2.35-1.23,5.65,5.65,0,0,0,1.57-2,6.61,6.61,0,0,0,.58-2.82,6,6,0,0,0-.52-2.6,4.71,4.71,0,0,0-1.42-1.75,5.85,5.85,0,0,0-2.05-1,5.53,5.53,0,0,0,1.57-1,5.06,5.06,0,0,0,1-1.53,5.24,5.24,0,0,0,.37-1.94,5.51,5.51,0,0,0-.55-2.49,4.59,4.59,0,0,0-1.5-1.71,6.64,6.64,0,0,0-2.21-1,11.12,11.12,0,0,0-2.71-.32Z"/><polygon class="cls-3" points="406.22 158.39 388.26 158.39 388.26 162.48 394.83 162.48 394.83 180.27 399.65 180.27 399.65 162.48 406.22 162.48 406.22 158.39"/><path class="cls-3" d="M381.11,171.82h-4.76a6.14,6.14,0,0,1-1.57,3.66,4.75,4.75,0,0,1-3.44,1.26,5.3,5.3,0,0,1-3.06-.92,5.77,5.77,0,0,1-2-2.56,10.21,10.21,0,0,1-.71-3.93,11.24,11.24,0,0,1,.21-2.17,8.58,8.58,0,0,1,.64-2,6,6,0,0,1,1.12-1.67,4.79,4.79,0,0,1,1.64-1.14,6.09,6.09,0,0,1,4.52,0,4.34,4.34,0,0,1,1.66,1.3,5.09,5.09,0,0,1,.9,2.06H381a8,8,0,0,0-.89-3.13,8.42,8.42,0,0,0-2-2.49,9.34,9.34,0,0,0-2.92-1.63,11.16,11.16,0,0,0-3.64-.59,11.7,11.7,0,0,0-3.69.58,9.82,9.82,0,0,0-5.2,4.08,11.23,11.23,0,0,0-1.38,3.14,13.43,13.43,0,0,0-.48,3.63,14.23,14.23,0,0,0,.76,4.71,10.42,10.42,0,0,0,2.14,3.63A9.42,9.42,0,0,0,367,180a11.14,11.14,0,0,0,4.33.82,11.43,11.43,0,0,0,4-.65,8.45,8.45,0,0,0,3-1.83,8.65,8.65,0,0,0,1.94-2.83,12,12,0,0,0,.9-3.66"/><polygon class="cls-3" points="353.41 158.39 335.45 158.39 335.45 162.48 342.02 162.48 342.02 180.27 346.84 180.27 346.84 162.48 353.41 162.48 353.41 158.39"/><polygon class="cls-3" points="327.28 158.39 322.49 158.39 322.49 166.63 313.56 166.63 313.56 158.39 308.77 158.39 308.77 180.27 313.56 180.27 313.56 170.84 322.49 170.84 322.49 180.27 327.28 180.27 327.28 158.39"/><polygon class="cls-3" points="299.61 158.39 283.22 158.39 283.22 180.27 299.83 180.27 299.83 176.25 287.98 176.25 287.98 170.87 298.66 170.87 298.66 167.09 287.98 167.09 287.98 162.33 299.61 162.33 299.61 158.39"/><polygon class="cls-3" points="275.17 158.39 259.94 158.39 259.94 180.27 264.74 180.27 264.74 162.48 275.17 162.48 275.17 158.39"/><path class="cls-3" d="M244.53,171.88h-5.8l2.91-8.12Zm-.4-13.49h-4.94l-8.32,21.88h4.91l1.78-4.88h8.14l1.71,4.88h5Z"/></g></g></svg>