<?xml version="1.0" encoding="UTF-8"?>
<svg version="1.1" xmlns="http://www.w3.org/2000/svg" width="443" height="443">
<path d="M0 0 C146.19 0 292.38 0 443 0 C443 146.19 443 292.38 443 443 C296.81 443 150.62 443 0 443 C0 296.81 0 150.62 0 0 Z " fill="#F9F9F7" transform="translate(0,0)"/>
<path d="M0 0 C2.83038625 1.11875012 4.50042107 2.75373951 6.70703125 4.84765625 C10.26249 8.14728904 13.8670998 11.30427885 17.64453125 14.34765625 C22.10873582 17.95914759 26.37455239 21.73426319 30.6171875 25.6015625 C33.21415518 27.90953223 35.87857138 30.10321488 38.58203125 32.28515625 C42.38540628 35.36102213 46.04535777 38.53518791 49.64453125 41.84765625 C54.0175722 45.86863034 58.52552283 49.64955144 63.14453125 53.3828125 C68.59510613 57.86108431 73.88829261 62.52264739 79.20507812 67.15820312 C82.34609294 69.89433385 85.49564203 72.62059625 88.64453125 75.34765625 C89.89457424 76.43093998 91.14457419 77.51427337 92.39453125 78.59765625 C93.01328125 79.13390625 93.63203125 79.67015625 94.26953125 80.22265625 C96.14453125 81.84765625 98.01953125 83.47265625 99.89453125 85.09765625 C100.51384521 85.63438965 101.13315918 86.17112305 101.77124023 86.72412109 C103.01556512 87.80254681 104.25986866 88.88099715 105.50415039 89.95947266 C108.715801 92.74309959 111.92787223 95.52623893 115.140625 98.30859375 C116.130625 99.16614258 116.130625 99.16614258 117.140625 100.04101562 C118.38397392 101.11800096 119.62745151 102.19483777 120.87109375 103.27148438 C121.99999943 104.24944649 123.11881462 105.23922492 124.22533417 106.24244595 C126.09371484 107.89084299 126.09371484 107.89084299 128.20783234 109.07958317 C132.10486598 111.66686235 133.89536373 113.65658723 134.86865234 118.30909538 C135.2386939 122.83367194 135.13473304 127.35591063 135.05273438 131.89038086 C135.05047623 133.6352325 135.05174749 135.38009174 135.05627441 137.12493896 C135.05856613 141.85025004 135.01159527 146.57393049 134.95568275 151.29886317 C134.90560936 156.24087003 134.900968 161.18291594 134.89147949 166.12513733 C134.86663277 175.47862102 134.80100864 184.83135502 134.72068357 194.18450886 C134.61447038 206.8270488 134.57134674 219.46979433 134.52466583 232.11266804 C134.44948317 252.02489211 134.29009656 271.93553431 134.14453125 291.84765625 C80.02453125 291.84765625 25.90453125 291.84765625 -29.85546875 291.84765625 C-29.85546875 264.12765625 -29.85546875 236.40765625 -29.85546875 207.84765625 C-45.69546875 207.84765625 -61.53546875 207.84765625 -77.85546875 207.84765625 C-77.85546875 233.91765625 -77.85546875 259.98765625 -77.85546875 286.84765625 C-96.99546875 286.84765625 -116.13546875 286.84765625 -135.85546875 286.84765625 C-136.81808017 263.74052554 -136.81808017 263.74052554 -137.02734375 253.81054688 C-137.17032105 247.05824494 -137.33842054 240.31382308 -137.66601562 233.56762695 C-139.44347424 196.00212525 -139.44347424 196.00212525 -133.57644653 188.38565063 C-128.08996417 183.16833765 -121.96206557 180.37120695 -114.85523987 177.97407532 C-110.20123308 176.22648799 -106.33449241 173.50775071 -102.29296875 170.66015625 C-97.57145756 167.53928739 -92.79473218 164.61288095 -87.85546875 161.84765625 C-87.85546875 159.86765625 -87.85546875 157.88765625 -87.85546875 155.84765625 C-88.45609131 156.21117187 -89.05671387 156.5746875 -89.67553711 156.94921875 C-92.37998053 158.58430517 -95.08644105 160.21602244 -97.79296875 161.84765625 C-98.73849609 162.42 -99.68402344 162.99234375 -100.65820312 163.58203125 C-102.00688477 164.39414062 -102.00688477 164.39414062 -103.3828125 165.22265625 C-104.21546631 165.72539062 -105.04812012 166.228125 -105.90600586 166.74609375 C-107.85546875 167.84765625 -107.85546875 167.84765625 -108.85546875 167.84765625 C-111.45437461 132.01474192 -111.45437461 132.01474192 -105.90234375 124.74609375 C-102.88144166 121.87241687 -99.48414224 119.78698779 -95.78710938 117.88476562 C-92.97521114 116.37504069 -90.69578122 114.37143055 -88.29296875 112.28515625 C-87.42542969 111.58261719 -86.55789062 110.88007813 -85.6640625 110.15625 C-82.35248395 107.43421534 -79.10233816 104.64625894 -75.85546875 101.84765625 C-70.86610782 97.54787631 -65.81325531 93.34280063 -60.69921875 89.19140625 C-57.37860389 86.45463576 -54.11500093 83.65662675 -50.85546875 80.84765625 C-45.86388802 76.54605644 -40.80999301 72.33790833 -35.69140625 68.1875 C-32.40891852 65.47922155 -29.19636706 62.69676912 -25.98046875 59.91015625 C-20.4057065 55.08896816 -14.67778416 50.53769248 -8.79296875 46.1015625 C-6.66331558 44.46750681 -4.63496563 42.81128257 -2.60546875 41.0625 C0.14453125 38.84765625 0.14453125 38.84765625 2.14453125 38.84765625 C2.14453125 117.38765625 2.14453125 195.92765625 2.14453125 276.84765625 C40.75453125 276.84765625 79.36453125 276.84765625 119.14453125 276.84765625 C119.40370692 250.14927683 119.40370692 250.14927683 119.52148438 223.45117188 C119.53817245 212.556592 119.57014337 201.66363696 119.70336914 190.76977539 C119.80034652 182.83407032 119.84396125 174.90012097 119.82489163 166.96381587 C119.81662971 162.76500276 119.83413443 158.57003628 119.91567802 154.37192726 C121.0991541 136.19031962 121.0991541 136.19031962 114.88528442 119.98422241 C111.8761152 117.06025244 108.65176682 114.85978863 104.96722603 112.87318993 C102.25893071 111.3493758 99.99195372 109.37005757 97.64453125 107.34765625 C96.34128906 106.29191406 96.34128906 106.29191406 95.01171875 105.21484375 C90.89168221 101.81328769 86.87065626 98.3014329 82.84082031 94.79394531 C74.81563603 87.81215726 66.72061749 80.92160835 58.45703125 74.22265625 C54.05870339 70.64543446 49.85154271 66.90168084 45.66015625 63.0859375 C42.24311049 60.04561572 38.69430304 57.18291468 35.140625 54.3046875 C27.92992214 48.39134708 20.87809695 42.27705378 13.89453125 36.09765625 C9.44633784 32.18131206 4.79636034 28.51764436 0.14453125 24.84765625 C-3.30785735 26.45081726 -5.90536934 28.51958256 -8.765625 31.03515625 C-11.08708104 33.04853121 -13.46566013 34.97842387 -15.85546875 36.91015625 C-21.10132039 41.18321947 -26.20751127 45.60264678 -31.30664062 50.04907227 C-34.94172561 53.21131942 -38.61009276 56.31568521 -42.35546875 59.34765625 C-47.38895416 63.42522752 -52.27880184 67.6527154 -57.16357422 71.90576172 C-62.81811754 76.82643275 -68.53018961 81.67546724 -74.26269531 86.50488281 C-76.96361687 88.78187064 -79.65924119 91.06511419 -82.35546875 93.34765625 C-83.4387774 94.26435209 -84.52211071 95.18101878 -85.60546875 96.09765625 C-86.14171875 96.55140625 -86.67796875 97.00515625 -87.23046875 97.47265625 C-88.85546875 98.84765625 -90.48046875 100.22265625 -92.10546875 101.59765625 C-92.9109314 102.27924805 -92.9109314 102.27924805 -93.73266602 102.97460938 C-94.8085515 103.88491176 -95.88455925 104.79506966 -96.96069336 105.70507812 C-99.78403407 108.09290579 -102.6047737 110.48371928 -105.421875 112.87890625 C-106.00710937 113.37583984 -106.59234375 113.87277344 -107.1953125 114.38476562 C-108.31198861 115.33305407 -109.42792116 116.28221906 -110.54296875 117.23242188 C-114.73477938 120.78959451 -114.73477938 120.78959451 -117.01733398 121.88769531 C-119.66070544 124.70626166 -119.23655107 126.9602631 -119.15332031 130.7164917 C-119.1169043 131.64149475 -119.08048828 132.5664978 -119.04296875 133.51953125 C-119.01847293 135.48304489 -118.99641469 137.44659017 -118.9765625 139.41015625 C-118.92503445 142.5038025 -118.85562058 145.59349963 -118.74267578 148.68554688 C-118.16478016 165.97264447 -118.16478016 165.97264447 -122.453125 170.72851562 C-125.55999401 172.54997893 -128.430494 173.7624824 -131.85546875 174.84765625 C-133.19707159 175.49752088 -134.53224084 176.16115051 -135.85546875 176.84765625 C-136.1350524 168.95438428 -136.34746915 161.06321965 -136.47721481 153.16620159 C-136.53953091 149.49792343 -136.62382981 145.83306015 -136.76074219 142.16674805 C-137.69461563 116.49528605 -137.69461563 116.49528605 -133.32641602 110.57299805 C-130.53904339 107.6907777 -127.35981319 105.78595167 -123.85546875 103.84765625 C-121.97622976 102.35791504 -120.11790159 100.84094807 -118.29296875 99.28515625 C-117.39449219 98.56199219 -116.49601562 97.83882813 -115.5703125 97.09375 C-112.7487338 94.75935035 -110.04956163 92.32775027 -107.35546875 89.84765625 C-102.90819763 85.75414534 -98.30829412 81.92323126 -93.60546875 78.12890625 C-90.77447297 75.78046657 -88.06163277 73.33855723 -85.35546875 70.84765625 C-80.90819763 66.75414534 -76.30829412 62.92323126 -71.60546875 59.12890625 C-68.77447297 56.78046657 -66.06163277 54.33855723 -63.35546875 51.84765625 C-58.88561755 47.73386716 -54.26501982 43.87678328 -49.5390625 40.0625 C-46.90838318 37.89132798 -44.37604451 35.64524268 -41.85546875 33.34765625 C-38.45948193 30.25210429 -34.99375344 27.29614418 -31.41796875 24.41015625 C-27.54354335 21.27997076 -23.82871032 18.03774654 -20.16796875 14.66015625 C-16.44347729 11.23319906 -12.68016399 8.04835631 -8.56640625 5.1015625 C-6.62603806 3.72011964 -6.62603806 3.72011964 -4.10546875 1.41015625 C-1.85546875 -0.15234375 -1.85546875 -0.15234375 0 0 Z " fill="#03284B" transform="translate(228.85546875,21.15234375)"/>
<path d="M0 0 C3.62140464 1.81070232 5.65787249 3.34928122 8.5625 6.0625 C13.87316466 10.92931146 19.39587829 15.47723699 25 20 C32.25029906 25.87081738 39.37751806 31.86597308 46.44921875 37.94921875 C54.60485 44.96364115 62.83042338 51.88310793 71.171875 58.67578125 C75.92933878 62.58557538 80.68582516 66.51592497 85.29784298 70.59712791 C86.95983023 72.03281174 86.95983023 72.03281174 88.81001377 73.11095619 C92.00871077 75.25914674 93.7411509 76.89021201 94.63342094 80.71572495 C94.86365732 84.21731339 94.86531156 87.65690034 94.79467773 91.16552734 C94.79270146 92.50629573 94.79381498 93.84707169 94.79777527 95.18783569 C94.79977907 98.81613266 94.75870538 102.44280093 94.70975757 106.0707202 C94.66591785 109.86628621 94.6618802 113.66189199 94.65357971 117.45767212 C94.63184612 124.64018957 94.57443557 131.8219588 94.50413328 139.00414717 C94.41116674 148.71307202 94.3734576 158.42220232 94.33261776 168.13146019 C94.26684959 183.42153361 94.12738273 198.71002831 94 214 C62.98 214 31.96 214 0 214 C0 143.38 0 72.76 0 0 Z " fill="#03284B" transform="translate(242,73)"/>
<path d="M0 0 C1.3303125 1.1446875 1.3303125 1.1446875 2.6875 2.3125 C7.28373889 6.25213333 11.90774819 10.15886082 16.53125 14.06640625 C18.8046206 15.98791528 21.07539874 17.91241234 23.34375 19.83984375 C28.42061686 24.15047629 33.51215734 28.43231734 38.6875 32.625 C43.08582786 36.20222179 47.29298854 39.94597541 51.484375 43.76171875 C54.90765323 46.80758587 58.46315302 49.67526477 62.0234375 52.55859375 C65.34784365 55.28530483 68.61598035 58.07080022 71.875 60.875 C81.25019923 68.93872257 90.64839284 76.96404382 100.26953125 84.734375 C101.17058594 85.48203125 102.07164062 86.2296875 103 87 C103.65495705 87.40722825 104.30991409 87.8144565 104.98471832 88.234025 C108.60438564 90.76000188 110.68769904 92.68375272 111.7272644 97.06518364 C111.98586035 100.97224341 111.9907663 104.83719025 111.90820312 108.74780273 C111.90594434 110.24635191 111.9072175 111.74490993 111.91174316 113.24345398 C111.9140325 117.29741153 111.86710345 121.34946377 111.8111515 125.40297961 C111.76103655 129.64429148 111.75643355 133.88565026 111.74694824 138.12721252 C111.72211344 146.15265752 111.65650643 154.17722752 111.57615232 162.20228773 C111.4698902 173.05102753 111.42680577 183.90000773 111.38013458 194.74913692 C111.30497917 211.83341297 111.14558638 228.91584282 111 246 C72.39 246 33.78 246 -6 246 C-6.49259264 186.26642517 -6.49259264 186.26642517 -6.6484375 161.28710938 C-6.68410913 155.5790172 -6.72015756 149.8709276 -6.75683594 144.1628418 C-6.76141737 143.44741508 -6.76599879 142.73198836 -6.77071905 141.99488205 C-6.84525584 130.4411792 -6.94106864 118.88774559 -7.04472218 107.33427147 C-7.15060694 95.47939174 -7.23366925 83.62451094 -7.29549801 71.76931876 C-7.33088742 65.1094707 -7.37760887 58.45002872 -7.44918442 51.79047585 C-7.51618765 45.52543445 -7.55509966 39.26085357 -7.57224464 32.9954834 C-7.58353766 30.69316303 -7.60519318 28.39086719 -7.63785744 26.08875084 C-7.68085724 22.95011351 -7.68690306 19.81351665 -7.68356323 16.67463684 C-7.70493123 15.75926441 -7.72629923 14.84389197 -7.74831474 13.90078098 C-7.68738098 7.83478487 -7.68738098 7.83478487 -5.65345788 5.36470163 C-4.0197773 4.0203352 -4.0197773 4.0203352 -1 2 C-0.67 1.34 -0.34 0.68 0 0 Z M5 21 C5 91.62 5 162.24 5 235 C36.02 235 67.04 235 99 235 C99.32062806 211.07246474 99.32062806 211.07246474 99.53710938 187.14453125 C99.60231222 177.38232662 99.67884294 167.62116842 99.82983398 157.85986328 C99.93976367 150.74968956 100.010507 143.6403668 100.03497344 136.52936685 C100.04926848 132.76648766 100.08264814 129.00604193 100.16303062 125.24394608 C100.23822464 121.69562477 100.26063001 118.15071553 100.24418449 114.60167313 C100.24861079 112.69231627 100.30754716 110.78332391 100.36862183 108.87493896 C100.29928548 103.56478649 100.03842624 100.28634175 96.63636208 96.07206345 C93.8615425 93.5186927 91.03412602 91.23581268 88 89 C86.39266055 87.71228366 84.78791023 86.42131808 83.1875 85.125 C82.37539063 84.48691406 81.56328125 83.84882813 80.7265625 83.19140625 C77.4424977 80.5519215 74.25180404 77.81511935 71.0625 75.0625 C66.91742101 71.48637523 62.75147951 67.9500224 58.5 64.5 C54.2720752 61.06791987 50.1247211 57.55448829 46 54 C40.99040724 49.68372026 35.9210636 45.45585331 30.7890625 41.28515625 C27.6056262 38.67687861 24.45450546 36.03292529 21.3125 33.375 C20.76352051 32.91109863 20.21454102 32.44719727 19.64892578 31.96923828 C15.86625712 28.76201937 12.14820697 25.49097297 8.48828125 22.14453125 C7.04867963 20.7967966 7.04867963 20.7967966 5 21 Z " fill="#A77A2B" transform="translate(237,52)"/>
<path d="M0 0 C1.3303125 1.1446875 1.3303125 1.1446875 2.6875 2.3125 C7.28373889 6.25213333 11.90774819 10.15886082 16.53125 14.06640625 C18.8046206 15.98791528 21.07539874 17.91241234 23.34375 19.83984375 C28.42061686 24.15047629 33.51215734 28.43231734 38.6875 32.625 C43.08582786 36.20222179 47.29298854 39.94597541 51.484375 43.76171875 C54.90765323 46.80758587 58.46315302 49.67526477 62.0234375 52.55859375 C65.34784608 55.28530682 68.61591707 58.07087089 71.875 60.875 C72.46273193 61.3803125 73.05046387 61.885625 73.65600586 62.40625 C74.84640004 63.42979692 76.03674834 64.45339719 77.22705078 65.47705078 C80.08243406 67.92980221 82.94456611 70.37443917 85.8125 72.8125 C86.34560791 73.26818359 86.87871582 73.72386719 87.42797852 74.19335938 C91.29704053 77.47656404 95.30444717 80.49784348 99.48828125 83.3671875 C101 85 101 85 101.23046875 87.6953125 C101.15441406 88.45585937 101.07835937 89.21640625 101 90 C99.02 89.505 99.02 89.505 97 89 C97 91.64 97 94.28 97 97 C93.60124195 95.06969491 90.7431318 93.02502292 87.875 90.375 C84.59220695 87.40047582 81.25490154 84.53839595 77.8125 81.75 C73.47946716 78.23509224 69.22519351 74.64274459 65 71 C60.87540483 67.44537117 56.7279188 63.93207526 52.5 60.5 C47.65403211 56.5662143 42.91901472 52.51552241 38.19140625 48.44140625 C33.81227794 44.67554755 29.36095313 41.00925514 24.875 37.37109375 C20.75509282 33.97328987 16.71470233 30.48460471 12.68164062 26.984375 C10.18836307 24.82940991 7.74601752 22.83067835 5 21 C5 72.81 5 124.62 5 178 C2.69 177.67 0.38 177.34 -2 177 C-2.495 178.98 -2.495 178.98 -3 181 C-2.34 181.33 -1.68 181.66 -1 182 C-2.32 182.33 -3.64 182.66 -5 183 C-5 186.96 -5 190.92 -5 195 C-5.33 195 -5.66 195 -6 195 C-6.27063798 170.57447991 -6.50687058 146.14883747 -6.70202446 121.72259235 C-6.79343997 110.38132438 -6.89615849 99.04036819 -7.02539062 87.69946289 C-7.13798662 77.81597293 -7.22947273 67.93255292 -7.29549801 58.04863805 C-7.33120646 52.81394129 -7.3775595 47.57982255 -7.44918442 42.34548378 C-7.51625063 37.41993653 -7.55511374 32.49497606 -7.57224464 27.56900978 C-7.5835262 25.76011109 -7.60515974 23.95124316 -7.63785744 22.14260483 C-7.68094814 19.67380352 -7.68689917 17.2075914 -7.68356323 14.73847961 C-7.70493123 14.02154554 -7.72629923 13.30461147 -7.74831474 12.56595212 C-7.71263298 9.76284142 -7.55685283 7.62753055 -5.65345788 5.48255002 C-4.15601668 4.25319366 -2.58041599 3.12068394 -1 2 C-0.67 1.34 -0.34 0.68 0 0 Z " fill="#EED370" transform="translate(237,52)"/>
<path d="M0 0 C0.59375 3.09375 0.59375 3.09375 0 7 C-2.79219519 9.74663489 -6.12085464 11.55354157 -9.5 13.5 C-11.50531794 14.71205827 -13.51052202 15.92430492 -15.515625 17.13671875 C-16.57072266 17.76239746 -17.62582031 18.38807617 -18.71289062 19.03271484 C-24.28319133 22.36645542 -29.75829472 25.85142527 -35.25 29.3125 C-37.27485376 30.58132477 -39.30080223 31.84840519 -41.328125 33.11328125 C-42.1830957 33.64735596 -43.03806641 34.18143066 -43.91894531 34.73168945 C-46 36 -46 36 -48 37 C-48.33 68.35 -48.66 99.7 -49 132 C-29.86 132 -10.72 132 9 132 C9 105.93 9 79.86 9 53 C24.84 53 40.68 53 57 53 C57 80.72 57 108.44 57 137 C111.12 137 165.24 137 221 137 C221 137.33 221 137.66 221 138 C164.9 138 108.8 138 51 138 C51 111.93 51 85.86 51 59 C38.79 59 26.58 59 14 59 C14 84.74 14 110.48 14 137 C-9.1 137 -32.2 137 -56 137 C-56.92250261 111.85623308 -56.92250261 111.85623308 -57.12304688 101.0703125 C-57.2601689 93.73044688 -57.42160929 86.3972265 -57.73510742 79.0625 C-59.43896539 38.15557427 -59.43896539 38.15557427 -53.81329346 30.46447754 C-48.58114619 25.3632837 -42.7972088 22.93033328 -35.85281372 20.94943237 C-31.33845322 19.44702793 -27.81354466 16.77712913 -24 14 C-20.02841656 11.49474209 -16.01388283 9.0618186 -12 6.625 C-10.95199219 5.98433594 -9.90398437 5.34367188 -8.82421875 4.68359375 C-7.33341797 3.77673828 -7.33341797 3.77673828 -5.8125 2.8515625 C-4.91144531 2.30322754 -4.01039063 1.75489258 -3.08203125 1.18994141 C-1 0 -1 0 0 0 Z " fill="#A6813C" transform="translate(142,176)"/>
<path d="M0 0 C15.84 0 31.68 0 48 0 C48 27.72 48 55.44 48 84 C102.12 84 156.24 84 212 84 C212 84.33 212 84.66 212 85 C155.9 85 99.8 85 42 85 C42 58.93 42 32.86 42 6 C29.79 6 17.58 6 5 6 C5 16.89 5 27.78 5 39 C3.68 39 2.36 39 1 39 C1.33 39.99 1.66 40.98 2 42 C1.72428861 44.00875442 1.39764263 46.01178687 1 48 C1.66 48.33 2.32 48.66 3 49 C1.515 49.495 1.515 49.495 0 50 C0 33.5 0 17 0 0 Z " fill="#F4D86B" transform="translate(151,229)"/>
<path d="M0 0 C2.97 0 5.94 0 9 0 C9.33 5.61 9.66 11.22 10 17 C10.78246094 15.85660156 11.56492188 14.71320313 12.37109375 13.53515625 C13.39317346 12.04423264 14.41531191 10.5533493 15.4375 9.0625 C15.95376953 8.30775391 16.47003906 7.55300781 17.00195312 6.77539062 C17.49501953 6.05673828 17.98808594 5.33808594 18.49609375 4.59765625 C18.95169678 3.93258057 19.4072998 3.26750488 19.87670898 2.58227539 C21 1 21 1 22 0 C25.3 0 28.6 0 32 0 C32 11.22 32 22.44 32 34 C28.7 34 25.4 34 22 34 C21.67 28.39 21.34 22.78 21 17 C19.35276274 19.45740296 17.70715536 21.91587001 16.0625 24.375 C15.59392578 25.07367188 15.12535156 25.77234375 14.64257812 26.4921875 C14.19462891 27.1625 13.74667969 27.8328125 13.28515625 28.5234375 C12.87144775 29.14138184 12.45773926 29.75932617 12.03149414 30.39599609 C10.94056583 32.02917268 10.94056583 32.02917268 10 34 C6.7 34 3.4 34 0 34 C0 22.78 0 11.56 0 0 Z " fill="#062E54" transform="translate(210,328)"/>
<path d="M0 0 C3.3 0 6.6 0 10 0 C10 3.96 10 7.92 10 12 C13.63 12 17.26 12 21 12 C21 8.04 21 4.08 21 0 C24.63 0 28.26 0 32 0 C32 11.22 32 22.44 32 34 C28.37 34 24.74 34 21 34 C21 29.38 21 24.76 21 20 C17.37 20 13.74 20 10 20 C10 24.62 10 29.24 10 34 C6.7 34 3.4 34 0 34 C0 22.78 0 11.56 0 0 Z " fill="#062E55" transform="translate(265,328)"/>
<path d="M0 0 C10.56 0 21.12 0 32 0 C32 11.22 32 22.44 32 34 C28.37 34 24.74 34 21 34 C21 25.42 21 16.84 21 8 C17.37 8 13.74 8 10 8 C10 16.58 10 25.16 10 34 C6.7 34 3.4 34 0 34 C0 22.78 0 11.56 0 0 Z " fill="#083056" transform="translate(155,328)"/>
<path d="M0 0 C2.64 0.66 5.28 1.32 8 2 C8 20.81 8 39.62 8 59 C18.23 59 28.46 59 39 59 C39 59.33 39 59.66 39 60 C24.40318907 61.33257403 24.40318907 61.33257403 17 60 C17 60.66 17 61.32 17 62 C15.68 62 14.36 62 13 62 C13 63.32 13 64.64 13 66 C12.67 66.99 12.34 67.98 12 69 C7.05 69 2.1 69 -3 69 C-3.02489276 62.09896094 -3.04295061 55.19794857 -3.05493164 48.296875 C-3.05993138 45.9537714 -3.06673335 43.61067088 -3.07543945 41.26757812 C-3.08769739 37.88150266 -3.09327206 34.49546877 -3.09765625 31.109375 C-3.10281754 30.07762146 -3.10797882 29.04586792 -3.11329651 27.98284912 C-3.11382818 20.94275742 -2.685903 14.00592246 -2 7 C-1.01 6.67 -0.02 6.34 1 6 C0.649375 5.38125 0.29875 4.7625 -0.0625 4.125 C-0.371875 3.42375 -0.68125 2.7225 -1 2 C-0.67 1.34 -0.34 0.68 0 0 Z " fill="#BD882F" transform="translate(234,228)"/>
<path d="M0 0 C0.33 0 0.66 0 1 0 C1.02335826 7.7116162 1.04103309 15.42322383 1.05181217 23.13486671 C1.05699033 26.71720267 1.06399368 30.29951409 1.07543945 33.88183594 C1.08645125 37.35076507 1.09231479 40.81967089 1.09487724 44.28861618 C1.09757452 46.2302299 1.10535609 48.17183448 1.11329651 50.11343384 C1.11469899 72.77060202 1.11469899 72.77060202 -1 77 C-2.97888961 77.72693904 -4.97954558 78.39816251 -7 79 C-7.33 82.3 -7.66 85.6 -8 89 C-8.33 89 -8.66 89 -9 89 C-9.04630347 79.1426629 -9.08185907 69.2853516 -9.10362434 59.42792797 C-9.11406962 54.85092012 -9.12824237 50.27398657 -9.15087891 45.69702148 C-9.17258079 41.28149496 -9.18456302 36.86603999 -9.18975449 32.45046425 C-9.19345502 30.76432481 -9.20068108 29.07818936 -9.21146011 27.39208031 C-9.22593983 25.03367976 -9.22797943 22.67557638 -9.22705078 20.31713867 C-9.23424133 19.61726837 -9.24143188 18.91739807 -9.24884033 18.19631958 C-9.23330228 14.55896435 -9.07949842 13.11924762 -7 10 C-6.61500109 8.34450469 -6.27206865 6.6777567 -6 5 C-5.34 5 -4.68 5 -4 5 C-4 4.01 -4 3.02 -4 2 C-3.01 2.33 -2.02 2.66 -1 3 C-1.33 3.99 -1.66 4.98 -2 6 C-1.34 6 -0.68 6 0 6 C0 4.02 0 2.04 0 0 Z " fill="#F4DA70" transform="translate(241,116)"/>
<path d="M0 0 C1.3303125 1.1446875 1.3303125 1.1446875 2.6875 2.3125 C11.68346669 10.01552411 20.695367 17.66971351 30 25 C28.69921875 27.48046875 28.69921875 27.48046875 27 30 C23.8125 30.3125 23.8125 30.3125 21 30 C20.67 30.99 20.34 31.98 20 33 C14.80789528 29.19695186 9.84390238 25.23841458 5 21 C5.01160156 21.91523437 5.02320313 22.83046875 5.03515625 23.7734375 C5.04417969 24.96195313 5.05320313 26.15046875 5.0625 27.375 C5.07410156 28.55835937 5.08570313 29.74171875 5.09765625 30.9609375 C5 34 5 34 4 36 C2.68 35.67 1.36 35.34 0 35 C-0.33 36.32 -0.66 37.64 -1 39 C-1.66 39 -2.32 39 -3 39 C-3.99 41.475 -3.99 41.475 -5 44 C-5.33 44 -5.66 44 -6 44 C-6.29184411 38.82338658 -6.54293222 33.64697328 -6.75683594 28.46655273 C-6.83523703 26.70560594 -6.92465248 24.945113 -7.02539062 23.18530273 C-7.16851554 20.65127604 -7.27159982 18.11824185 -7.3671875 15.58203125 C-7.44644974 14.40674614 -7.44644974 14.40674614 -7.52731323 13.2077179 C-7.6767927 7.80215639 -7.6767927 7.80215639 -5.6729126 5.42709351 C-4.17884056 4.20276509 -2.5920131 3.09394956 -1 2 C-0.67 1.34 -0.34 0.68 0 0 Z " fill="#DAAE50" transform="translate(237,52)"/>
<path d="M0 0 C3.63 0 7.26 0 11 0 C11.06058594 0.99902344 11.12117188 1.99804688 11.18359375 3.02734375 C11.26738281 4.31769531 11.35117187 5.60804688 11.4375 6.9375 C11.51871094 8.22527344 11.59992188 9.51304687 11.68359375 10.83984375 C11.64919188 13.86023957 11.64919188 13.86023957 13 15 C15.33944736 14.71269945 17.6739143 14.38063221 20 14 C20.33 9.38 20.66 4.76 21 0 C24.63 0 28.26 0 32 0 C32 11.22 32 22.44 32 34 C28.37 34 24.74 34 21 34 C21 30.04 21 26.08 21 22 C19.35 22.66 17.7 23.32 16 24 C11.09249183 24.46738173 8.99084199 24.53211885 4.625 22.1875 C0.1768397 18.48069975 0.1768397 18.48069975 -0.22705078 15.09887695 C-0.21657715 14.40238037 -0.20610352 13.70588379 -0.1953125 12.98828125 C-0.18886719 12.23095703 -0.18242187 11.47363281 -0.17578125 10.69335938 C-0.15902344 9.90767578 -0.14226562 9.12199219 -0.125 8.3125 C-0.11597656 7.51521484 -0.10695313 6.71792969 -0.09765625 5.89648438 C-0.07411585 3.930861 -0.03824547 1.96539225 0 0 Z " fill="#0F3358" transform="translate(319,328)"/>
<path d="M0 0 C0.59375 3.09375 0.59375 3.09375 0 7 C-2.79217839 9.74661837 -6.12072362 11.55379451 -9.5 13.5 C-11.50802477 14.71188794 -13.51582911 15.92414116 -15.5234375 17.13671875 C-16.57885742 17.76239746 -17.63427734 18.38807617 -18.72167969 19.03271484 C-22.0692141 21.04153465 -25.36995371 23.11187762 -28.6640625 25.20703125 C-29.74365234 25.8928125 -30.82324219 26.57859375 -31.93554688 27.28515625 C-34.03378342 28.61887917 -36.13145582 29.95349011 -38.22851562 31.2890625 C-39.18693359 31.89105469 -40.14535156 32.49304688 -41.1328125 33.11328125 C-41.97730957 33.64735596 -42.82180664 34.18143066 -43.69189453 34.73168945 C-46 36 -46 36 -50 37 C-50 51.19 -50 65.38 -50 80 C-50.66 80 -51.32 80 -52 80 C-52.33 79.34 -52.66 78.68 -53 78 C-54.73054609 79.73054609 -54.16964628 82.07803253 -54.20532227 84.43774414 C-54.22526749 85.59887222 -54.24521271 86.76000031 -54.26576233 87.95631409 C-54.28247482 89.219832 -54.29918732 90.48334991 -54.31640625 91.78515625 C-54.3475779 93.71408974 -54.3475779 93.71408974 -54.37937927 95.68199158 C-54.43466176 99.10635904 -54.48404361 102.5307875 -54.53222656 105.95526123 C-54.58239665 109.44744314 -54.6381061 112.9395361 -54.69335938 116.43164062 C-54.8010164 123.28768333 -54.90244449 130.14380633 -55 137 C-55.33 137 -55.66 137 -56 137 C-56.53477862 123.8142774 -56.94245423 110.63116059 -57.19167995 97.4367733 C-57.31136132 91.30810041 -57.47334145 85.18688046 -57.73510742 79.0625 C-59.43896539 38.15557427 -59.43896539 38.15557427 -53.81329346 30.46447754 C-48.58114619 25.3632837 -42.7972088 22.93033328 -35.85281372 20.94943237 C-31.33845322 19.44702793 -27.81354466 16.77712913 -24 14 C-20.02841656 11.49474209 -16.01388283 9.0618186 -12 6.625 C-10.95199219 5.98433594 -9.90398437 5.34367188 -8.82421875 4.68359375 C-7.33341797 3.77673828 -7.33341797 3.77673828 -5.8125 2.8515625 C-4.91144531 2.30322754 -4.01039063 1.75489258 -3.08203125 1.18994141 C-1 0 -1 0 0 0 Z " fill="#E9CE82" transform="translate(142,176)"/>
<path d="M0 0 C3.01997294 2.28038773 4.52929722 3.88534084 6.0625 7.3125 C6.0625 7.9725 6.0625 8.6325 6.0625 9.3125 C3.07852242 10.25615103 0.18960719 11.06276575 -2.9375 11.3125 C-5.1875 9.4375 -5.1875 9.4375 -6.9375 7.3125 C-10.10124283 6.9266777 -11.89463516 7.29821172 -14.9375 8.3125 C-15.01847324 10.58274968 -15.07667704 12.85382075 -15.125 15.125 C-15.15980469 16.38957031 -15.19460937 17.65414063 -15.23046875 18.95703125 C-15.212803 22.23252293 -15.212803 22.23252293 -13.6484375 24.265625 C-11.76520698 25.62830324 -11.76520698 25.62830324 -8.375 25.25 C-7.240625 24.940625 -6.10625 24.63125 -4.9375 24.3125 C-4.2775 22.9925 -3.6175 21.6725 -2.9375 20.3125 C0.0325 20.9725 3.0025 21.6325 6.0625 22.3125 C5.55864177 26.72125955 4.1511933 29.13800966 1.0625 32.3125 C-3.47356848 35.11418935 -8.78118308 34.81279992 -13.9375 34.3125 C-18.7269533 32.97773433 -22.28218199 31.08279203 -25.0546875 26.8046875 C-26.29053104 23.31589026 -26.44710302 19.91321995 -26.5 16.25 C-26.51474365 15.56526611 -26.5294873 14.88053223 -26.54467773 14.17504883 C-26.44273217 9.11744987 -25.13294678 6.18007284 -21.9375 2.3125 C-15.79525067 -2.70322325 -7.04126903 -3.6394745 0 0 Z " fill="#072C53" transform="translate(126.9375,328.6875)"/>
<path d="M0 0 C1.31322788 0.97819024 2.62556152 1.9575811 3.9375 2.9375 C4.66839844 3.48277344 5.39929688 4.02804688 6.15234375 4.58984375 C8 6 8 6 9 7 C9.0928726 8.41225046 9.11746772 9.82908934 9.11352539 11.24438477 C9.11344986 12.14524307 9.11337433 13.04610138 9.11329651 13.97425842 C9.10813522 14.95341721 9.10297394 15.93257599 9.09765625 16.94140625 C9.0962413 17.93881332 9.09482635 18.9362204 9.09336853 19.96385193 C9.08775114 23.16343124 9.07519571 26.36294169 9.0625 29.5625 C9.05748724 31.72591045 9.05292395 33.88932199 9.04882812 36.05273438 C9.03777607 41.36851325 9.02102104 46.68425171 9 52 C8.38125 51.79375 7.7625 51.5875 7.125 51.375 C6.073125 51.189375 6.073125 51.189375 5 51 C4.34 51.66 3.68 52.32 3 53 C3.66 53.33 4.32 53.66 5 54 C5.72159424 55.64363134 6.39351421 57.31050386 7 59 C6.34 59 5.68 59 5 59 C5.020625 60.11375 5.04125 61.2275 5.0625 62.375 C5 66 5 66 4 68 C2.35 67.34 0.7 66.68 -1 66 C-1.00586624 65.3596431 -1.01173248 64.71928619 -1.01777649 64.05952454 C-1.08173193 57.39201282 -1.16615759 50.7249828 -1.26245117 44.05786133 C-1.29569657 41.56997022 -1.32372966 39.08200376 -1.34643555 36.59399414 C-1.3799877 33.01676332 -1.43230592 29.44022281 -1.48828125 25.86328125 C-1.49786613 24.19583611 -1.49786613 24.19583611 -1.50764465 22.4947052 C-1.52743881 21.45400375 -1.54723297 20.41330231 -1.56762695 19.34106445 C-1.57873001 18.4283931 -1.58983307 17.51572174 -1.60127258 16.57539368 C-2.07704266 13.5023789 -3.38961619 11.62946683 -5 9 C-4.6875 5.6875 -4.6875 5.6875 -4 3 C-2.02 3.495 -2.02 3.495 0 4 C0 2.68 0 1.36 0 0 Z " fill="#CFA041" transform="translate(338,138)"/>
<path d="M0 0 C15.84 0 31.68 0 48 0 C48 27.72 48 55.44 48 84 C102.12 84 156.24 84 212 84 C212 84.33 212 84.66 212 85 C155.9 85 99.8 85 42 85 C42 42 42 42 43 41 C43.04092937 38.66702567 43.04241723 36.33294775 43 34 C43.33 34 43.66 34 44 34 C44.66 37.3 45.32 40.6 46 44 C46.33 29.81 46.66 15.62 47 1 C31.49 1 15.98 1 0 1 C0 0.67 0 0.34 0 0 Z " fill="#A29B7F" transform="translate(151,229)"/>
<path d="M0 0 C2.64 0.66 5.28 1.32 8 2 C8.17348288 6.75038069 8.30026048 11.49890674 8.38452148 16.25170898 C8.4196529 17.86694462 8.46737171 19.48195874 8.52807617 21.09643555 C8.61333995 23.42291861 8.65275382 25.74645474 8.68359375 28.07421875 C8.71972275 28.79212082 8.75585175 29.51002289 8.79307556 30.24967957 C8.79467773 32.3112793 8.79467773 32.3112793 8 36 C5.81526674 38.18199149 3.70744553 39.43013663 1 41 C0.34 40.67 -0.32 40.34 -1 40 C-0.625 37.5625 -0.625 37.5625 0 35 C0.99 34.505 0.99 34.505 2 34 C1.01 33.67 0.02 33.34 -1 33 C-1.33 34.32 -1.66 35.64 -2 37 C-3.49959674 26.87772203 -2.97788444 17.16301329 -2 7 C-1.01 6.67 -0.02 6.34 1 6 C0.649375 5.38125 0.29875 4.7625 -0.0625 4.125 C-0.371875 3.42375 -0.68125 2.7225 -1 2 C-0.67 1.34 -0.34 0.68 0 0 Z " fill="#D3A546" transform="translate(234,228)"/>
<path d="M0 0 C4.62 0 9.24 0 14 0 C14 5.61 14 11.22 14 17 C14.66 17 15.32 17 16 17 C16 19.64 16 22.28 16 25 C15.01 25 14.02 25 13 25 C13 23.35 13 21.7 13 20 C8.05 20 3.1 20 -2 20 C-2 21.65 -2 23.3 -2 25 C-2.99 25 -3.98 25 -5 25 C-5 22.36 -5 19.72 -5 17 C-4.34 16.67 -3.68 16.34 -3 16 C-0.73528354 10.804474 -0.45299737 5.58696756 0 0 Z " fill="#0F335E" transform="translate(144,375)"/>
<path d="M0 0 C5.17140461 3.72002947 9.9755711 7.69002484 14.6796875 11.984375 C17.74003132 14.64285549 21.01100305 16.96313544 24.34765625 19.26171875 C26 21 26 21 26.24609375 23.70703125 C26.16488281 24.46371094 26.08367187 25.22039062 26 26 C24.68 25.67 23.36 25.34 22 25 C22 27.64 22 30.28 22 33 C18.51114829 31.02298403 15.58094244 28.89266754 12.625 26.1875 C9.2630875 23.12917158 5.84763884 20.18015268 2.3125 17.32421875 C1 16 1 16 0 13 C0.59793673 10.64811553 1.25881795 8.31074405 2 6 C1.34 6 0.68 6 0 6 C0 4.02 0 2.04 0 0 Z " fill="#E1BA59" transform="translate(312,116)"/>
<path d="M0 0 C1.32 0 2.64 0 4 0 C4 14.85 4 29.7 4 45 C-8.87 44.505 -8.87 44.505 -22 44 C-22 43.01 -22 42.02 -22 41 C-26.62 41 -31.24 41 -36 41 C-36 40.67 -36 40.34 -36 40 C-24.45 40 -12.9 40 -1 40 C-1.03956538 30.546114 -1.03956538 30.546114 -1.09008789 21.09228516 C-1.09258545 19.91972168 -1.09508301 18.7471582 -1.09765625 17.5390625 C-1.10289307 16.33459473 -1.10812988 15.13012695 -1.11352539 13.88916016 C-1 11 -1 11 0 9 C0.06950541 7.45976004 0.08452357 5.91665012 0.0625 4.375 C0.05347656 3.55773437 0.04445312 2.74046875 0.03515625 1.8984375 C0.02355469 1.27195312 0.01195312 0.64546875 0 0 Z " fill="#BF913A" transform="translate(152,268)"/>
<path d="M0 0 C2.9375 1.875 2.9375 1.875 5 5 C6.02870363 10.10170093 5.82533781 13.74948817 2.9375 18.125 C-0.78610663 20.50177019 -2.65810577 20.77533825 -7 20 C-9.9375 18.125 -9.9375 18.125 -12 15 C-13.02870363 9.89829907 -12.82533781 6.25051183 -9.9375 1.875 C-6.21389337 -0.50177019 -4.34189423 -0.77533825 0 0 Z " fill="#11345E" transform="translate(287,375)"/>
<path d="M0 0 C1.918125 -0.0825 3.83625 -0.165 5.8125 -0.25 C7.43091797 -0.31960938 7.43091797 -0.31960938 9.08203125 -0.390625 C12 0 12 0 13.91015625 1.81640625 C15.41053785 4.82254717 14.71250361 6.79373377 14 10 C14.33 10.33 14.66 10.66 15 11 C15.46184579 16.31122653 15.46184579 16.31122653 13.87109375 18.68359375 C10.01062705 21.39962147 4.4867196 20.14473289 0 20 C0 13.4 0 6.8 0 0 Z " fill="#082F59" transform="translate(164,375)"/>
<path d="M0 0 C0.64453125 3.0625 0.64453125 3.0625 0 7 C-3.07749156 9.90133884 -6.66315351 11.89180241 -10.3125 14 C-11.26962891 14.5775 -12.22675781 15.155 -13.21289062 15.75 C-15.14928403 16.91835589 -17.09223404 18.0759122 -19.04150391 19.22265625 C-23.00765532 21.60535821 -26.86111016 24.15038715 -30.71166992 26.71484375 C-33 28 -33 28 -36 28 C-36.33 27.01 -36.66 26.02 -37 25 C-37.2475 25.639375 -37.495 26.27875 -37.75 26.9375 C-39 29 -39 29 -41.125 29.75 C-42.053125 29.87375 -42.053125 29.87375 -43 30 C-43.33 29.01 -43.66 28.02 -44 27 C-36.42063863 21.86515338 -28.75595897 16.93193937 -20.93066406 12.17724609 C-18.68639783 10.80877723 -16.44860431 9.43001375 -14.2109375 8.05078125 C-12.55733158 7.03378927 -10.90368598 6.01686179 -9.25 5 C-8.45062012 4.50653076 -7.65124023 4.01306152 -6.82763672 3.50463867 C-6.08529785 3.04935791 -5.34295898 2.59407715 -4.578125 2.125 C-3.57894043 1.51011719 -3.57894043 1.51011719 -2.55957031 0.8828125 C-1 0 -1 0 0 0 Z " fill="#EED677" transform="translate(142,176)"/>
<path d="M0 0 C1.65 0 3.3 0 5 0 C6.32 4.29 7.64 8.58 9 13 C10.8272911 10.25906335 11.93698178 7.86174676 13.125 4.8125 C13.47820312 3.91144531 13.83140625 3.01039063 14.1953125 2.08203125 C14.46085937 1.39496094 14.72640625 0.70789063 15 0 C16.65 0 18.3 0 20 0 C20 6.6 20 13.2 20 20 C18.68 20 17.36 20 16 20 C15.67 16.37 15.34 12.74 15 9 C13.68 12.63 12.36 16.26 11 20 C10.01 20 9.02 20 8 20 C6.68 15.71 5.36 11.42 4 7 C3.67 11.29 3.34 15.58 3 20 C2.01 20 1.02 20 0 20 C0 13.4 0 6.8 0 0 Z " fill="#053668" transform="translate(251,375)"/>
<path d="M0 0 C3.64937464 1.60468956 6.48721928 3.85619865 9.5625 6.375 C10.51253906 7.14585938 11.46257812 7.91671875 12.44140625 8.7109375 C14.6731942 10.70762107 16.43275056 12.45793218 18 15 C17.625 17.125 17.625 17.125 17 19 C17.33 19.66 17.66 20.32 18 21 C17.01 20.67 16.02 20.34 15 20 C15 18.68 15 17.36 15 16 C14.401875 15.87625 13.80375 15.7525 13.1875 15.625 C11 15 11 15 8 13 C8 12.34 8 11.68 8 11 C7.01 11.495 7.01 11.495 6 12 C6.66 14.31 7.32 16.62 8 19 C3.64756565 19 1.50118863 16.35529575 -1.625 13.625 C-2.223125 13.11710937 -2.82125 12.60921875 -3.4375 12.0859375 C-7.85667783 8.28664435 -7.85667783 8.28664435 -9 6 C-8.67 5.34 -8.34 4.68 -8 4 C-7.030625 3.855625 -6.06125 3.71125 -5.0625 3.5625 C-4.051875 3.376875 -3.04125 3.19125 -2 3 C-1.34 2.01 -0.68 1.02 0 0 Z " fill="#E8C967" transform="translate(266,78)"/>
<path d="M0 0 C0.33 0.99 0.66 1.98 1 3 C1.66 3 2.32 3 3 3 C3 18.84 3 34.68 3 51 C2.34 49.68 1.68 48.36 1 47 C0.34 46.34 -0.32 45.68 -1 45 C-2.02608334 39.8328938 -2.16013653 34.75551704 -2.16796875 29.51171875 C-2.17129715 28.72730911 -2.17462555 27.94289948 -2.17805481 27.13471985 C-2.18308565 25.4901284 -2.18546433 23.84552687 -2.18530273 22.20092773 C-2.18750883 19.67740487 -2.20575758 17.15430621 -2.22460938 14.63085938 C-2.22754015 13.02864732 -2.22952706 11.42643321 -2.23046875 9.82421875 C-2.24124702 8.6914576 -2.24124702 8.6914576 -2.25224304 7.53581238 C-2.2288512 2.2288512 -2.2288512 2.2288512 0 0 Z " fill="#C19133" transform="translate(89,253)"/>
<path d="M0 0 C2.875 2.125 2.875 2.125 5 5 C5 6.98 5 8.96 5 11 C0.71 11 -3.58 11 -8 11 C-7.67 12.65 -7.34 14.3 -7 16 C-3.58343976 16.16677282 -3.58343976 16.16677282 0 16 C0.66 15.34 1.32 14.68 2 14 C2.99 14 3.98 14 5 14 C3.63016497 17.16115776 3.0109362 17.9927092 0 20 C-3.57704385 20.46657094 -5.58416185 20.18983916 -8.875 18.6875 C-11.78079143 15.01252849 -11.70530002 12.23095588 -11.484375 7.640625 C-11 5 -11 5 -8.875 1.8125 C-5.45015775 -0.34663968 -3.96628159 -0.82630866 0 0 Z " fill="#0D2C53" transform="translate(132,375)"/>
<path d="M0 0 C0.99 0 1.98 0 3 0 C3 2.64 3 5.28 3 8 C4.2375 7.95875 5.475 7.9175 6.75 7.875 C12.63255272 7.91664639 12.63255272 7.91664639 15 10 C16 12.875 16 12.875 16 16 C14.390625 18.1796875 14.390625 18.1796875 12 20 C7.93404512 20.52667809 4.11858117 20.17906875 0 20 C0 13.4 0 6.8 0 0 Z " fill="#042D5B" transform="translate(333,375)"/>
<path d="M0 0 C1.75 0.0625 1.75 0.0625 4 1 C5.52956035 3.23932036 6.71657623 5.60427563 8 8 C8.66 8.33 9.32 8.66 10 9 C10 6.03 10 3.06 10 0 C10.99 0 11.98 0 13 0 C13 2.97 13 5.94 13 9 C16.06765266 6.15549102 16.06765266 6.15549102 18 2.8125 C18.66 1.884375 19.32 0.95625 20 0 C20.99 0 21.98 0 23 0 C23 0.99 23 1.98 23 3 C22 4 21 5 20 6 C18.80972016 8.59915538 18.80972016 8.59915538 18 11 C18.433125 11.37125 18.86625 11.7425 19.3125 12.125 C21.46152985 14.51281095 22.64757984 17.1019568 24 20 C22.68 20 21.36 20 20 20 C18.5859375 18.28515625 18.5859375 18.28515625 17.375 16.0625 C15.77807245 12.93256594 15.77807245 12.93256594 13 11 C13 13.97 13 16.94 13 20 C12.01 20 11.02 20 10 20 C10 17.03 10 14.06 10 11 C7.03595495 13.80804268 4.55500981 16.18315774 3 20 C1.68 19.67 0.36 19.34 -1 19 C-0.21718695 17.66144944 0.57651877 16.32926356 1.375 15 C1.81585938 14.2575 2.25671875 13.515 2.7109375 12.75 C3.13632813 12.1725 3.56171875 11.595 4 11 C4.66 11 5.32 11 6 11 C5.38125 9.865625 4.7625 8.73125 4.125 7.5625 C3.77695313 6.92441406 3.42890625 6.28632813 3.0703125 5.62890625 C2.08589976 3.83381685 2.08589976 3.83381685 0 3 C0 2.01 0 1.02 0 0 Z " fill="#132F5A" transform="translate(203,375)"/>
<path d="M0 0 C5.94 0 11.88 0 18 0 C18 2.97 18 5.94 18 9 C10.41 9 2.82 9 -5 9 C-5.33 7.68 -5.66 6.36 -6 5 C-5.34 4.01 -4.68 3.02 -4 2 C-2.68 2 -1.36 2 0 2 C0 1.34 0 0.68 0 0 Z " fill="#B7822B" transform="translate(251,288)"/>
<path d="M0 0 C1.88838279 2.77703351 1.99354164 4.18729234 1.875 7.625 C1 11 1 11 -1.0625 12.4375 C-2.0215625 12.7159375 -2.0215625 12.7159375 -3 13 C-3 13.99 -3 14.98 -3 16 C0.8665284 12.777893 1.88059018 9.85077588 3 5 C3.33 5 3.66 5 4 5 C4 9.62 4 14.24 4 19 C2.68 18.67 1.36 18.34 0 18 C-0.66 18.66 -1.32 19.32 -2 20 C-1.34 20.33 -0.68 20.66 0 21 C0.72159424 22.64363134 1.39351421 24.31050386 2 26 C1.34 26 0.68 26 0 26 C0.020625 27.11375 0.04125 28.2275 0.0625 29.375 C0 33 0 33 -1 35 C-2.65 34.34 -4.3 33.68 -6 33 C-6.08728882 29.75017 -6.14048658 26.5006425 -6.1875 23.25 C-6.21263672 22.32960937 -6.23777344 21.40921875 -6.26367188 20.4609375 C-6.27333984 19.57148438 -6.28300781 18.68203125 -6.29296875 17.765625 C-6.3086792 16.94868164 -6.32438965 16.13173828 -6.34057617 15.29003906 C-5.92160828 12.47289293 -4.79992008 11.16256251 -3 9 C-2.33820153 7.01954441 -2.33820153 7.01954441 -2 5 C-1.11111111 1.11111111 -1.11111111 1.11111111 0 0 Z " fill="#C18F34" transform="translate(343,171)"/>
<path d="M0 0 C3.96 0.99 3.96 0.99 8 2 C8 7.28 8 12.56 8 18 C7.34 18 6.68 18 6 18 C6 20.31 6 22.62 6 25 C4.4375 23.75 4.4375 23.75 3 22 C3.3125 19.8125 3.3125 19.8125 4 18 C3.34 18 2.68 18 2 18 C1.67 18.66 1.34 19.32 1 20 C1 19.34 1 18.68 1 18 C0.01 18.33 -0.98 18.66 -2 19 C-2 15.04 -2 11.08 -2 7 C-1.01 6.67 -0.02 6.34 1 6 C0.649375 5.38125 0.29875 4.7625 -0.0625 4.125 C-0.371875 3.42375 -0.68125 2.7225 -1 2 C-0.67 1.34 -0.34 0.68 0 0 Z " fill="#D8AD50" transform="translate(234,228)"/>
<path d="M0 0 C0.99 0 1.98 0 3 0 C3.33 4.29 3.66 8.58 4 13 C7.465 6.565 7.465 6.565 11 0 C12.32 0 13.64 0 15 0 C15 6.6 15 13.2 15 20 C14.01 20 13.02 20 12 20 C11.67 15.71 11.34 11.42 11 7 C10.54109375 7.85464844 10.0821875 8.70929688 9.609375 9.58984375 C8.99578125 10.69457031 8.3821875 11.79929687 7.75 12.9375 C7.14671875 14.03964844 6.5434375 15.14179688 5.921875 16.27734375 C4 19 4 19 0 20 C0 13.4 0 6.8 0 0 Z " fill="#1F2E52" transform="translate(230,375)"/>
<path d="M0 0 C0.99 0 1.98 0 3 0 C3.33 4.29 3.66 8.58 4 13 C7.465 6.565 7.465 6.565 11 0 C12.32 0 13.64 0 15 0 C15 6.6 15 13.2 15 20 C14.01 20 13.02 20 12 20 C11.67 15.71 11.34 11.42 11 7 C10.54109375 7.85464844 10.0821875 8.70929688 9.609375 9.58984375 C8.99578125 10.69457031 8.3821875 11.79929687 7.75 12.9375 C7.14671875 14.03964844 6.5434375 15.14179688 5.921875 16.27734375 C4 19 4 19 0 20 C0 13.4 0 6.8 0 0 Z " fill="#1F2E52" transform="translate(184,375)"/>
<path d="M0 0 C0.99 0 1.98 0 3 0 C3 2.64 3 5.28 3 8 C5.64 8 8.28 8 11 8 C11 5.36 11 2.72 11 0 C12.32 0 13.64 0 15 0 C15 6.6 15 13.2 15 20 C13.68 20 12.36 20 11 20 C11 17.03 11 14.06 11 11 C8.36 11 5.72 11 3 11 C3 13.97 3 16.94 3 20 C2.01 20 1.02 20 0 20 C0 13.4 0 6.8 0 0 Z " fill="#173F69" transform="translate(102,375)"/>
<path d="M0 0 C0.99 0 1.98 0 3 0 C3.33 0.66 3.66 1.32 4 2 C4.33 2 4.66 2 5 2 C5 6.95 5 11.9 5 17 C2.69 16.67 0.38 16.34 -2 16 C-2.33 17.32 -2.66 18.64 -3 20 C-2.34 20.33 -1.68 20.66 -1 21 C-2.32 21.33 -3.64 21.66 -5 22 C-5 25.96 -5 29.92 -5 34 C-5.33 34 -5.66 34 -6 34 C-6.05444001 30.99975053 -6.0938836 28.00050961 -6.125 25 C-6.14175781 24.16082031 -6.15851563 23.32164062 -6.17578125 22.45703125 C-6.21849117 16.94745123 -5.55502007 12.28951708 -4 7 C-2.02 7 -0.04 7 2 7 C2 6.34 2 5.68 2 5 C0.35 5.33 -1.3 5.66 -3 6 C-3.33 5.34 -3.66 4.68 -4 4 C-3.01 3.67 -2.02 3.34 -1 3 C-0.67 2.01 -0.34 1.02 0 0 Z " fill="#E1BD5E" transform="translate(237,213)"/>
<path d="M0 0 C3.41265527 1.55483125 6.27374573 3.53679681 9.25 5.8125 C10.58804687 6.81216797 10.58804687 6.81216797 11.953125 7.83203125 C14 10 14 10 14.296875 12.76171875 C14.19890625 13.50035156 14.1009375 14.23898438 14 15 C12.68 14.67 11.36 14.34 10 14 C10 16.64 10 19.28 10 22 C5.05484333 19.37288552 1.12224511 15.73354706 -3 12 C-2.34 11.67 -1.68 11.34 -1 11 C-0.34 11.33 0.32 11.66 1 12 C2.17504225 9.64991549 2.61989404 7.59739075 3 5 C2.67 4.01 2.34 3.02 2 2 C1.01 1.67 0.02 1.34 -1 1 C-0.67 0.67 -0.34 0.34 0 0 Z " fill="#DEB553" transform="translate(324,127)"/>
<path d="M0 0 C0.33 0 0.66 0 1 0 C1.13277344 1.16917969 1.26554687 2.33835938 1.40234375 3.54296875 C1.58062013 5.09115839 1.75901161 6.63933478 1.9375 8.1875 C2.02451172 8.95642578 2.11152344 9.72535156 2.20117188 10.51757812 C2.71869509 15.01999098 2.71869509 15.01999098 3.5625 19.46875 C4.24296536 23.40572813 4.10340108 27.32621817 4.0625 31.3125 C4.05798828 32.14845703 4.05347656 32.98441406 4.04882812 33.84570312 C4.03710548 35.89716649 4.01917203 37.94859273 4 40 C3.34 40 2.68 40 2 40 C1.67 39.34 1.34 38.68 1 38 C0.01 38.495 0.01 38.495 -1 39 C-1.02474682 34.08870815 -1.04288223 29.17745273 -1.05493164 24.26611328 C-1.05995569 22.59585945 -1.06677605 20.92561001 -1.07543945 19.25537109 C-1.08758946 16.85252804 -1.09324763 14.44974321 -1.09765625 12.046875 C-1.10281754 11.30193787 -1.10797882 10.55700073 -1.11329651 9.78948975 C-1.11366364 6.38497809 -1.07330918 3.25335241 0 0 Z " fill="#E9C355" transform="translate(88,216)"/>
<path d="M0 0 C4.18423892 3.50897269 8.19588166 7.08060535 12 11 C8.98968256 11.93423645 8.13349732 12.04449911 5 11 C5 11.66 5 12.32 5 13 C5.99 13.33 6.98 13.66 8 14 C3.558491 14.65800133 -0.51755604 15 -5 15 C-5.76681614 7.33183857 -5.76681614 7.33183857 -3.88671875 4.06640625 C-2.5 2.4375 -2.5 2.4375 0 0 Z " fill="#CEA149" transform="translate(237,52)"/>
<path d="M0 0 C2.375 1.8125 2.375 1.8125 4 4 C4 4.99 4 5.98 4 7 C3.01 7 2.02 7 1 7 C0.34 6.01 -0.32 5.02 -1 4 C-4.29075996 4.37904208 -4.29075996 4.37904208 -7 6 C-7.07205511 7.68608966 -7.08386068 9.37500659 -7.0625 11.0625 C-7.05347656 11.98160156 -7.04445313 12.90070313 -7.03515625 13.84765625 C-7.02355469 14.55792969 -7.01195312 15.26820313 -7 16 C-4.08365871 16.2502157 -4.08365871 16.2502157 -1 16 C-0.34 15.01 0.32 14.02 1 13 C2.32 13.33 3.64 13.66 5 14 C2.25 18.875 2.25 18.875 0 20 C-3.895203 20.5193604 -5.54795388 20.29481269 -8.875 18.125 C-11.46702882 14.31319292 -11.7278056 11.91332651 -11.484375 7.3828125 C-11 5 -11 5 -8.875 1.875 C-5.48818314 -0.3337936 -3.96139166 -0.75856436 0 0 Z " fill="#18355A" transform="translate(307,375)"/>
<path d="M0 0 C1.8125 1 1.8125 1 3 3 C3.55003751 6.616685 3.71020228 9.80386985 1.8125 13 C-0.66525842 14.36703913 -2.21155919 14.41826612 -5 14 C-6.8125 13 -6.8125 13 -8 11 C-8.55003751 7.383315 -8.71020228 4.19613015 -6.8125 1 C-4.33474158 -0.36703913 -2.78844081 -0.41826612 0 0 Z " fill="#FBFCF7" transform="translate(286,378)"/>
<path d="M0 0 C1.31322788 0.97819024 2.62556152 1.9575811 3.9375 2.9375 C4.66839844 3.48277344 5.39929688 4.02804688 6.15234375 4.58984375 C8 6 8 6 9 7 C9.04063832 8.66617115 9.042721 10.33388095 9 12 C8.01 12.33 7.02 12.66 6 13 C6 12.34 6 11.68 6 11 C3.03595495 13.80804268 0.55500981 16.18315774 -1 20 C-1.433125 18.453125 -1.433125 18.453125 -1.875 16.875 C-2.55369947 14.45804864 -3.30823766 12.17262523 -4.1875 9.8125 C-5.01076644 6.96273156 -5.04668936 5.72139233 -4 3 C-2.02 3.495 -2.02 3.495 0 4 C0 2.68 0 1.36 0 0 Z " fill="#D1A547" transform="translate(338,138)"/>
<path d="M0 0 C12.37632072 -0.10396237 24.66826776 -0.19684056 37 1 C37 1.99 37 2.98 37 4 C42.94 4 48.88 4 55 4 C55 4.33 55 4.66 55 5 C49.62484067 5.02467759 44.24971415 5.04284928 38.87451172 5.05493164 C37.04507879 5.05996737 35.21564991 5.06679627 33.38623047 5.07543945 C30.76008102 5.08753824 28.13398468 5.09323583 25.5078125 5.09765625 C24.68693146 5.10281754 23.86605042 5.10797882 23.02029419 5.11329651 C17.22774341 5.11387171 17.22774341 5.11387171 15 4 C15 3.34 15 2.68 15 2 C10.05 1.67 5.1 1.34 0 1 C0 0.67 0 0.34 0 0 Z " fill="#B6852D" transform="translate(93,308)"/>
<path d="M0 0 C4.98012761 1.50912958 8.24259942 4.55661849 12 8 C10.875 10.5 10.875 10.5 9 13 C5.8125 13.3125 5.8125 13.3125 3 13 C2.67 13.99 2.34 14.98 2 16 C1.01 15.34 0.02 14.68 -1 14 C-1.80015851 9.92646575 -2 6.12810244 -2 2 C-1.34 2 -0.68 2 0 2 C0 1.34 0 0.68 0 0 Z " fill="#E1BA5C" transform="translate(255,69)"/>
<path d="M0 0 C2.64 0 5.28 0 8 0 C8 4.62 8 9.24 8 14 C4.37 14 0.74 14 -3 14 C-2.01 9.38 -1.02 4.76 0 0 Z " fill="#F3F1EE" transform="translate(147,378)"/>
<path d="M0 0 C0.66 1.32 1.32 2.64 2 4 C4.05000871 4.80528889 4.05000871 4.80528889 6 5 C5.67 5.598125 5.34 6.19625 5 6.8125 C3.79212012 9.05386471 3.79212012 9.05386471 4 12 C4.33 12.66 4.66 13.32 5 14 C7.02463255 14.65213292 7.02463255 14.65213292 9 15 C9 15.66 9 16.32 9 17 C8.34 17.33 7.68 17.66 7 18 C6.67 18.66 6.34 19.32 6 20 C5.34 20 4.68 20 4 20 C2.74872624 22.90002412 2.74872624 22.90002412 3.5625 25.5625 C3.706875 26.366875 3.85125 27.17125 4 28 C3.34 28.66 2.68 29.32 2 30 C1.53837573 32.43252661 1.53837573 32.43252661 1.375 35.125 C1.30023438 36.03507812 1.22546875 36.94515625 1.1484375 37.8828125 C1.09945312 38.58148438 1.05046875 39.28015625 1 40 C0.67 40 0.34 40 0 40 C0 26.8 0 13.6 0 0 Z " fill="#C2943B" transform="translate(231,257)"/>
<path d="M0 0 C1.32 0.33 2.64 0.66 4 1 C5.45214801 5.98148331 5.18420386 10.97642776 5.1875 16.125 C5.19974609 17.13949219 5.21199219 18.15398437 5.22460938 19.19921875 C5.22654297 20.16730469 5.22847656 21.13539063 5.23046875 22.1328125 C5.23457764 23.01855957 5.23868652 23.90430664 5.24291992 24.81689453 C5 27 5 27 3 29 C2.67 27.68 2.34 26.36 2 25 C1.34 25 0.68 25 0 25 C0 16.75 0 8.5 0 0 Z " fill="#E1BA51" transform="translate(193,246)"/>
<path d="M0 0 C0.33 0 0.66 0 1 0 C1.02693575 2.12493141 1.04636628 4.24995912 1.0625 6.375 C1.07410156 7.55835937 1.08570313 8.74171875 1.09765625 9.9609375 C1 13 1 13 0 15 C-1.32 14.67 -2.64 14.34 -4 14 C-4.33 15.32 -4.66 16.64 -5 18 C-5.66 18 -6.32 18 -7 18 C-7.99 20.475 -7.99 20.475 -9 23 C-9.33 23 -9.66 23 -10 23 C-10.05383848 20.54137599 -10.09359038 18.0839245 -10.125 15.625 C-10.14175781 14.92632812 -10.15851563 14.22765625 -10.17578125 13.5078125 C-10.19344267 11.67102514 -10.10303261 9.83398037 -10 8 C-9.34 7.34 -8.68 6.68 -8 6 C-7.34 6.33 -6.68 6.66 -6 7 C-5.67 7.99 -5.34 8.98 -5 10 C-5 9.01 -5 8.02 -5 7 C-3.68 6.67 -2.36 6.34 -1 6 C-0.67 4.02 -0.34 2.04 0 0 Z " fill="#E2B95A" transform="translate(241,73)"/>
<path d="M0 0 C1.984375 0.95703125 1.984375 0.95703125 4 3 C4.52039056 5.90294794 4.37530743 8.75000457 4.25 11.6875 C4.23195312 12.48478516 4.21390625 13.28207031 4.1953125 14.10351562 C4.14822247 16.06952449 4.07647899 18.03491494 4 20 C-2.109375 16.95814732 -2.109375 16.95814732 -4 15 C-4.52238806 9.04477612 -4.52238806 9.04477612 -3 6 C-2.34 6 -1.68 6 -1 6 C-0.67 4.02 -0.34 2.04 0 0 Z " fill="#EBC35E" transform="translate(237,85)"/>
<path d="M0 0 C0.33 0.99 0.66 1.98 1 3 C1.66 3 2.32 3 3 3 C3.08710289 6.10398978 3.14042309 9.20766548 3.1875 12.3125 C3.21263672 13.19357422 3.23777344 14.07464844 3.26367188 14.98242188 C3.27333984 15.82998047 3.28300781 16.67753906 3.29296875 17.55078125 C3.3086792 18.33106689 3.32438965 19.11135254 3.34057617 19.9152832 C2.91847304 22.49903853 1.98510058 23.36292167 0 25 C-2.1097676 21.8353486 -2.25552605 21.02606227 -2.265625 17.40234375 C-2.26820312 16.51869141 -2.27078125 15.63503906 -2.2734375 14.72460938 C-2.26570313 13.80486328 -2.25796875 12.88511719 -2.25 11.9375 C-2.25773437 11.01388672 -2.26546875 10.09027344 -2.2734375 9.13867188 C-2.27085938 8.25630859 -2.26828125 7.37394531 -2.265625 6.46484375 C-2.26336914 5.656521 -2.26111328 4.84819824 -2.25878906 4.01538086 C-2 2 -2 2 0 0 Z " fill="#C89B3C" transform="translate(89,253)"/>
<path d="M0 0 C1.32 0 2.64 0 4 0 C4.02684312 2.81256281 4.04676188 5.62487241 4.0625 8.4375 C4.07087891 9.23994141 4.07925781 10.04238281 4.08789062 10.86914062 C4.0965143 12.91295221 4.0522815 14.95683902 4 17 C3.67 17.33 3.34 17.66 3 18 C2.95936168 19.66617115 2.957279 21.33388095 3 23 C2.34 23 1.68 23 1 23 C0.67 24.98 0.34 26.96 0 29 C0.66 29 1.32 29 2 29 C2 29.66 2 30.32 2 31 C1.01 30.67 0.02 30.34 -1 30 C-1.02895976 26.87501937 -1.04678483 23.7500731 -1.0625 20.625 C-1.07087891 19.73554688 -1.07925781 18.84609375 -1.08789062 17.9296875 C-1.09111328 17.07890625 -1.09433594 16.228125 -1.09765625 15.3515625 C-1.10289307 14.56604004 -1.10812988 13.78051758 -1.11352539 12.97119141 C-1 11 -1 11 0 9 C0.06950541 7.45976004 0.08452357 5.91665012 0.0625 4.375 C0.05347656 3.55773437 0.04445312 2.74046875 0.03515625 1.8984375 C0.02355469 1.27195312 0.01195312 0.64546875 0 0 Z " fill="#C99B3D" transform="translate(152,268)"/>
<path d="M0 0 C2.97 0.495 2.97 0.495 6 1 C6 3.31 6 5.62 6 8 C6.99 7.67 7.98 7.34 9 7 C8.54177532 10.46941546 8.10868317 13.67395049 7 17 C2.79373966 15.49776416 1.26099979 12.71449966 -1 9 C-0.34 9 0.32 9 1 9 C0.649375 8.443125 0.29875 7.88625 -0.0625 7.3125 C-1.21845993 4.46113217 -0.80967438 2.91482778 0 0 Z " fill="#EED16D" transform="translate(306,114)"/>
<path d="M0 0 C0.33 0 0.66 0 1 0 C1.66 3.3 2.32 6.6 3 10 C3.33 10 3.66 10 4 10 C4 16.6 4 23.2 4 30 C2.68 29.34 1.36 28.68 0 28 C0.33 27.34 0.66 26.68 1 26 C1 25.67 1 25.34 1 25 C0.34 25 -0.32 25 -1 25 C-1.02684312 22.18743719 -1.04676188 19.37512759 -1.0625 16.5625 C-1.07087891 15.76005859 -1.07925781 14.95761719 -1.08789062 14.13085938 C-1.0965143 12.08704779 -1.0522815 10.04316098 -1 8 C-0.67 7.67 -0.34 7.34 0 7 C0.04092937 4.66702567 0.04241723 2.33294775 0 0 Z " fill="#DDAF44" transform="translate(194,263)"/>
<path d="M0 0 C3.3 0 6.6 0 10 0 C10 6.6 10 13.2 10 20 C9.67 18.68 9.34 17.36 9 16 C7.68 15.67 6.36 15.34 5 15 C5 11.04 5 7.08 5 3 C2.69 3 0.38 3 -2 3 C-1.34 2.01 -0.68 1.02 0 0 Z " fill="#F4D769" transform="translate(188,231)"/>
<path d="M0 0 C1.65 0 3.3 0 5 0 C5 6.6 5 13.2 5 20 C3.68 20 2.36 20 1 20 C0.92652344 18.84371094 0.92652344 18.84371094 0.8515625 17.6640625 C0.77679688 16.66117187 0.70203125 15.65828125 0.625 14.625 C0.55539062 13.62726563 0.48578125 12.62953125 0.4140625 11.6015625 C0.23636036 8.84491121 0.23636036 8.84491121 -2 7 C-1.43181818 1.43181818 -1.43181818 1.43181818 0 0 Z " fill="#294B70" transform="translate(266,375)"/>
<path d="M0 0 C4.95 0 9.9 0 15 0 C15 0.99 15 1.98 15 3 C13.02 3 11.04 3 9 3 C9 8.61 9 14.22 9 20 C8.01 20 7.02 20 6 20 C6 14.39 6 8.78 6 3 C4.02 3 2.04 3 0 3 C0 2.01 0 1.02 0 0 Z " fill="#0C2853" transform="translate(314,375)"/>
<path d="M0 0 C0.05841253 3.54159657 0.09373452 7.08306793 0.125 10.625 C0.15013672 12.12353516 0.15013672 12.12353516 0.17578125 13.65234375 C0.23989521 23.33355165 0.23989521 23.33355165 -2 28 C-4.125 28.875 -4.125 28.875 -6 29 C-5.67 26.69 -5.34 24.38 -5 22 C-4.01 21.67 -3.02 21.34 -2 21 C-1.67 20.01 -1.34 19.02 -1 18 C-2.65 18.66 -4.3 19.32 -6 20 C-5.40138258 17.64828869 -4.73075648 15.3140622 -4 13 C-3.34 12.67 -2.68 12.34 -2 12 C-2 10.35 -2 8.7 -2 7 C-2.99 7 -3.98 7 -5 7 C-5 6.34 -5 5.68 -5 5 C-5.66 4.67 -6.32 4.34 -7 4 C-3 0 -3 0 0 0 Z " fill="#C2913A" transform="translate(242,264)"/>
<path d="M0 0 C1.2989839 0.90626784 2.58893167 1.82549537 3.875 2.75 C4.59429687 3.26046875 5.31359375 3.7709375 6.0546875 4.296875 C8.08570565 6.07503547 8.97855012 7.52701607 10 10 C9.01 10.495 9.01 10.495 8 11 C7.40929986 12.94603274 7.40929986 12.94603274 7 15 C6.67 15.66 6.34 16.32 6 17 C4.35 16.67 2.7 16.34 1 16 C-0.31223496 12.06329512 0.75703744 9.87511856 2 6 C1.34 6 0.68 6 0 6 C0 4.02 0 2.04 0 0 Z " fill="#E7C461" transform="translate(312,116)"/>
<path d="M0 0 C0.33 0 0.66 0 1 0 C1.60902256 18.58646617 1.60902256 18.58646617 -4 27 C-4.66 27 -5.32 27 -6 27 C-6 26.01 -6 25.02 -6 24 C-5.2884375 23.3503125 -5.2884375 23.3503125 -4.5625 22.6875 C-2.26898493 20.21050373 -2.24829689 18.35200801 -2 15 C-2.21216072 11.98041017 -2.56732774 8.99542334 -3 6 C-3.680625 7.2065625 -3.680625 7.2065625 -4.375 8.4375 C-6 11 -6 11 -8 12 C-8 10.68 -8 9.36 -8 8 C-7.34 7.67 -6.68 7.34 -6 7 C-6 6.34 -6 5.68 -6 5 C-5.34 5 -4.68 5 -4 5 C-4 4.34 -4 3.68 -4 3 C-3.01 2.67 -2.02 2.34 -1 2 C-0.67 1.34 -0.34 0.68 0 0 Z " fill="#C89839" transform="translate(346,160)"/>
<path d="M0 0 C0.66 0.66 1.32 1.32 2 2 C2.99 2.66 3.98 3.32 5 4 C3.73461631 4.84158536 2.46246221 5.67299748 1.1875 6.5 C0.12595703 7.19609375 0.12595703 7.19609375 -0.95703125 7.90625 C-3 9 -3 9 -6 9 C-6.33 8.01 -6.66 7.02 -7 6 C-7.2475 6.639375 -7.495 7.27875 -7.75 7.9375 C-9 10 -9 10 -11.125 10.75 C-12.053125 10.87375 -12.053125 10.87375 -13 11 C-13.33 10.01 -13.66 9.02 -14 8 C-12.04532248 6.66101601 -10.0866421 5.32870953 -8.125 4 C-7.03445312 3.2575 -5.94390625 2.515 -4.8203125 1.75 C-2 0 -2 0 0 0 Z " fill="#EFD172" transform="translate(112,195)"/>
<path d="M0 0 C0.99 0 1.98 0 3 0 C3.33 4.29 3.66 8.58 4 13 C4.99 13.33 5.98 13.66 7 14 C5.1875 17 5.1875 17 3 20 C2.01 20 1.02 20 0 20 C0 13.4 0 6.8 0 0 Z " fill="#042B5F" transform="translate(230,375)"/>
<path d="M0 0 C0.99 0 1.98 0 3 0 C3.33 4.29 3.66 8.58 4 13 C4.99 13.33 5.98 13.66 7 14 C5.1875 17 5.1875 17 3 20 C2.01 20 1.02 20 0 20 C0 13.4 0 6.8 0 0 Z " fill="#042B5F" transform="translate(184,375)"/>
<path d="M0 0 C0.66 0.33 1.32 0.66 2 1 C2 8.92 2 16.84 2 25 C0.68 24.67 -0.64 24.34 -2 24 C-2.33 20.7 -2.66 17.4 -3 14 C-2.01 14.33 -1.02 14.66 0 15 C0 14.34 0 13.68 0 13 C-0.66 13 -1.32 13 -2 13 C-1.67 11.02 -1.34 9.04 -1 7 C-0.34 7 0.32 7 1 7 C0.67 4.69 0.34 2.38 0 0 Z " fill="#BE8D2F" transform="translate(154,284)"/>
<path d="M0 0 C1.98 0.495 1.98 0.495 4 1 C4 5.29 4 9.58 4 14 C2.68 14 1.36 14 0 14 C0.33 14.99 0.66 15.98 1 17 C0.72428861 19.00875442 0.39764263 21.01178687 0 23 C0.66 23.33 1.32 23.66 2 24 C1.01 24.33 0.02 24.66 -1 25 C-1.18451025 8.29157175 -1.18451025 8.29157175 0 0 Z " fill="#EAC75F" transform="translate(152,254)"/>
<path d="M0 0 C0.66 0 1.32 0 2 0 C2 2.31 2 4.62 2 7 C0.68 7 -0.64 7 -2 7 C-2.99 7.33 -3.98 7.66 -5 8 C-3.35 8.33 -1.7 8.66 0 9 C-0.99 10.485 -0.99 10.485 -2 12 C-1.67 12.66 -1.34 13.32 -1 14 C-1.66 14 -2.32 14 -3 14 C-3.33 14.66 -3.66 15.32 -4 16 C-4 15.34 -4 14.68 -4 14 C-4.99 14.33 -5.98 14.66 -7 15 C-7 11.04 -7 7.08 -7 3 C-3.535 2.505 -3.535 2.505 0 2 C0 1.34 0 0.68 0 0 Z " fill="#E1B651" transform="translate(239,232)"/>
<path d="M0 0 C2.96175123 0.61277612 4.38058783 1.25372522 7 3 C7.1875 5.625 7.1875 5.625 7 8 C5.68 7.67 4.36 7.34 3 7 C3 9.64 3 12.28 3 15 C-1.875 12.375 -1.875 12.375 -3 9 C-2.34 8.34 -1.68 7.68 -1 7 C-0.59952556 4.67724823 -0.2602896 2.34260643 0 0 Z " fill="#D7AF51" transform="translate(331,134)"/>
<path d="M0 0 C0.99 0 1.98 0 3 0 C4.37020997 4.11062991 4.06276637 7.66912062 4 12 C-0.455 12.495 -0.455 12.495 -5 13 C-4.67 11.02 -4.34 9.04 -4 7 C-2.02 7 -0.04 7 2 7 C2 6.34 2 5.68 2 5 C0.35 5.33 -1.3 5.66 -3 6 C-3.33 5.34 -3.66 4.68 -4 4 C-3.01 3.67 -2.02 3.34 -1 3 C-0.67 2.01 -0.34 1.02 0 0 Z " fill="#EBC55C" transform="translate(237,213)"/>
<path d="M0 0 C0.33 0 0.66 0 1 0 C1.01030746 0.7052179 1.02061493 1.41043579 1.03123474 2.13702393 C1.12926898 8.78755443 1.23179179 15.43799888 1.33933926 22.08838272 C1.39447071 25.50729472 1.44787477 28.92621542 1.49731445 32.34521484 C1.55424676 36.27710613 1.61872237 40.20885636 1.68359375 44.140625 C1.70030624 45.36678528 1.71701874 46.59294556 1.73423767 47.85626221 C1.75418289 48.99714294 1.77412811 50.13802368 1.79467773 51.31347656 C1.81022202 52.31719299 1.8257663 53.32090942 1.84178162 54.3550415 C1.98300307 56.71586004 2.33050856 58.73991331 3 61 C1.515 61.495 1.515 61.495 0 62 C0 41.54 0 21.08 0 0 Z " fill="#0D2744" transform="translate(93,136)"/>
<path d="M0 0 C0.66 0 1.32 0 2 0 C2.66 2.31 3.32 4.62 4 7 C6.10232344 4.1315587 6.10232344 4.1315587 7 1 C7.66 1 8.32 1 9 1 C8.52060632 5.71403788 8.03165952 9.66579301 6 14 C5.01 14 4.02 14 3 14 C0.96006486 9.07015675 -0.40652968 5.42039575 0 0 Z " fill="#1D3A65" transform="translate(256,381)"/>
<path d="M0 0 C2.375 1.8125 2.375 1.8125 4 4 C4 4.99 4 5.98 4 7 C3.01 7 2.02 7 1 7 C0.34 6.01 -0.32 5.02 -1 4 C-4.29075996 4.37904208 -4.29075996 4.37904208 -7 6 C-7.36760731 8.32817964 -7.70241581 10.6618385 -8 13 C-8.33 13 -8.66 13 -9 13 C-9.27615058 11.40012764 -9.52007625 9.794667 -9.75 8.1875 C-9.88921875 7.29417969 -10.0284375 6.40085937 -10.171875 5.48046875 C-10 3 -10 3 -8.203125 1.203125 C-5.21883818 -0.42659191 -3.35277582 -0.48894647 0 0 Z " fill="#0E3564" transform="translate(307,375)"/>
<path d="M0 0 C2.4375 0.375 2.4375 0.375 5 1 C5.33 1.66 5.66 2.32 6 3 C6.825 3.4125 7.65 3.825 8.5 4.25 C11 6 11 6 11.8125 9.1875 C11.874375 10.115625 11.93625 11.04375 12 12 C8.32085287 12 7.60173135 11.17197787 4.875 8.8125 C4.17117188 8.22082031 3.46734375 7.62914063 2.7421875 7.01953125 C0.71926639 4.67457562 0.34645281 3.03933598 0 0 Z " fill="#EBCE6C" transform="translate(262,85)"/>
<path d="M0 0 C1.98 1.65 3.96 3.3 6 5 C3.50935112 5.68707555 1.62113708 6 -1 6 C-0.67 6.99 -0.34 7.98 0 9 C-0.9375 12.1875 -0.9375 12.1875 -2 15 C-2.99 15 -3.98 15 -5 15 C-5.76681614 7.33183857 -5.76681614 7.33183857 -3.88671875 4.06640625 C-2.5 2.4375 -2.5 2.4375 0 0 Z " fill="#CC9C3D" transform="translate(237,52)"/>
<path d="M0 0 C2.625 0.375 2.625 0.375 5 1 C4.6875 4.375 4.6875 4.375 4 8 C3.01 8.66 2.02 9.32 1 10 C1.33 8.35 1.66 6.7 2 5 C-0.15065784 6.78733227 -0.15065784 6.78733227 -0.4375 9.0625 C-0.7159375 10.0215625 -0.7159375 10.0215625 -1 11 C-1.99 11.33 -2.98 11.66 -4 12 C-5.40253926 7.79238221 -3.90602531 5.88264416 -2 2 C-1.34 1.34 -0.68 0.68 0 0 Z " fill="#CC9C3D" transform="translate(342,149)"/>
<path d="M0 0 C5.94 0 11.88 0 18 0 C18.33 1.32 18.66 2.64 19 4 C12.73 3.67 6.46 3.34 0 3 C0 2.01 0 1.02 0 0 Z " fill="#C28E2F" transform="translate(130,309)"/>
<path d="M0 0 C0.33 0 0.66 0 1 0 C1 2.97 1 5.94 1 9 C3.31 8.34 5.62 7.68 8 7 C8.33 8.32 8.66 9.64 9 11 C4.25 15 4.25 15 2 15 C2.33 13.35 2.66 11.7 3 10 C2.34 10 1.68 10 1 10 C1 14.29 1 18.58 1 23 C0.67 23 0.34 23 0 23 C-0.19588601 19.3545658 -0.38030536 15.7086421 -0.5625 12.0625 C-0.61857422 11.02158203 -0.67464844 9.98066406 -0.73242188 8.90820312 C-0.78076172 7.91884766 -0.82910156 6.92949219 -0.87890625 5.91015625 C-0.9260376 4.99371338 -0.97316895 4.07727051 -1.02172852 3.13305664 C-1 1 -1 1 0 0 Z " fill="#D0A951" transform="translate(231,58)"/>
<path d="M0 0 C2.64 0 5.28 0 8 0 C8.66 1.32 9.32 2.64 10 4 C8 6 8 6 6.0546875 6.1953125 C4.03645833 6.13020833 2.01822917 6.06510417 0 6 C0 4.02 0 2.04 0 0 Z " fill="#F5F9F4" transform="translate(336,386)"/>
<path d="M0 0 C1.134375 0.28875 2.26875 0.5775 3.4375 0.875 C4.0975 2.195 4.7575 3.515 5.4375 4.875 C1.4775 4.875 -2.4825 4.875 -6.5625 4.875 C-6.8925 6.195 -7.2225 7.515 -7.5625 8.875 C-7.25 5.5 -7.25 5.5 -6.5625 1.875 C-3.5625 -0.125 -3.5625 -0.125 0 0 Z " fill="#EAF0ED" transform="translate(118.5625,335.125)"/>
<path d="M0 0 C1.32 0 2.64 0 4 0 C4 4.62 4 9.24 4 14 C3.01 14.33 2.02 14.66 1 15 C-1.09358976 10.81282048 0 4.66612312 0 0 Z " fill="#DAB04A" transform="translate(152,268)"/>
<path d="M0 0 C2.64 0 5.28 0 8 0 C8.38218767 1.65614657 8.71395102 3.32457024 9 5 C8 6 8 6 6.15234375 6.09765625 C4.1015625 6.06510417 2.05078125 6.03255208 0 6 C0 4.02 0 2.04 0 0 Z " fill="#FAFAF5" transform="translate(167,386)"/>
<path d="M0 0 C3.875 2.625 3.875 2.625 5 6 C5.06937062 8.22818441 5.08457084 10.45834524 5.0625 12.6875 C5.05347656 13.86699219 5.04445313 15.04648437 5.03515625 16.26171875 C5.02355469 17.16535156 5.01195313 18.06898438 5 19 C4.71125 18.38125 4.4225 17.7625 4.125 17.125 C3.06279958 14.86674235 3.06279958 14.86674235 1 13 C0.5859375 9.9609375 0.5859375 9.9609375 0.375 6.375 C0.30023438 5.18648438 0.22546875 3.99796875 0.1484375 2.7734375 C0.09945312 1.85820312 0.05046875 0.94296875 0 0 Z " fill="#B9862C" transform="translate(87,285)"/>
<path d="M0 0 C2 1.3125 2 1.3125 4 4 C4.36089448 7.68855385 4.22933459 11.3051649 4 15 C2.68 14.34 1.36 13.68 0 13 C0.33 12.34 0.66 11.68 1 11 C1 10.67 1 10.34 1 10 C0.34 10 -0.32 10 -1 10 C-1.02689216 8.52093108 -1.04634621 7.04172517 -1.0625 5.5625 C-1.07410156 4.73878906 -1.08570313 3.91507812 -1.09765625 3.06640625 C-1 1 -1 1 0 0 Z " fill="#CD9D37" transform="translate(194,278)"/>
<path d="M0 0 C0.33 0.99 0.66 1.98 1 3 C1.66 3 2.32 3 3 3 C3 6.96 3 10.92 3 15 C0.77810176 12.77810176 0.07401108 10.91517292 -1 8 C-1.33 8 -1.66 8 -2 8 C-2.125 5.125 -2.125 5.125 -2 2 C-1.34 1.34 -0.68 0.68 0 0 Z " fill="#DAAE4A" transform="translate(89,253)"/>
<path d="M0 0 C2 2 2 2 2 5 C-1.3 5 -4.6 5 -8 5 C-7.67 3.68 -7.34 2.36 -7 1 C-4.48718205 -0.25640898 -2.78302919 -0.20872719 0 0 Z " fill="#F3F6F3" transform="translate(132,378)"/>
<path d="M0 0 C1.32 0.33 2.64 0.66 4 1 C5.17571451 4.67410785 5.07366746 8.16929183 5 12 C4.67 11.34 4.34 10.68 4 10 C3.34 10 2.68 10 2 10 C2 9.34 2 8.68 2 8 C1.34 8 0.68 8 0 8 C0 5.36 0 2.72 0 0 Z " fill="#E9C75D" transform="translate(193,246)"/>
<path d="M0 0 C2.6875 -0.3125 2.6875 -0.3125 6 0 C8.875 2.375 8.875 2.375 11 5 C11 5.66 11 6.32 11 7 C7.125 5.125 7.125 5.125 6 4 C3.30917128 4.17635452 0.67148554 4.61835921 -2 5 C-1.34 3.35 -0.68 1.7 0 0 Z " fill="#062D5C" transform="translate(126,375)"/>
<path d="M0 0 C1.98 0 3.96 0 6 0 C4.74194623 4.50802601 3.09592835 7.4912812 0 11 C0 7.37 0 3.74 0 0 Z " fill="#FDF5EA" transform="translate(188,377)"/>
<path d="M0 0 C2.31 0 4.62 0 7 0 C7.5625 1.9375 7.5625 1.9375 8 4 C7 5 7 5 3.4375 5.0625 C2.303125 5.041875 1.16875 5.02125 0 5 C0 3.35 0 1.7 0 0 Z " fill="#FAFFFB" transform="translate(167,378)"/>
<path d="M0 0 C1.32 0.33 2.64 0.66 4 1 C3.67 2.98 3.34 4.96 3 7 C0.39417629 7.93065133 -0.64198224 8.14917407 -3.25 7.0625 C-3.8275 6.711875 -4.405 6.36125 -5 6 C-4.01 5.67 -3.02 5.34 -2 5 C-0.78130071 2.49552484 -0.78130071 2.49552484 0 0 Z " fill="#E9C35E" transform="translate(324,131)"/>
<path d="M0 0 C1.32 0 2.64 0 4 0 C4.33 0.66 4.66 1.32 5 2 C5.33 1.34 5.66 0.68 6 0 C6.66 0 7.32 0 8 0 C8 3.3 8 6.6 8 10 C7.67 8.68 7.34 7.36 7 6 C6.01 5.67 5.02 5.34 4 5 C3.01 4.67 2.02 4.34 1 4 C0.125 1.875 0.125 1.875 0 0 Z " fill="#CC9B3E" transform="translate(233,254)"/>
<path d="M0 0 C0.66 0.33 1.32 0.66 2 1 C1.01 1.99 0.02 2.98 -1 4 C0.32 4.66 1.64 5.32 3 6 C3 7.65 3 9.3 3 11 C0.525 10.01 0.525 10.01 -2 9 C-2 6.36 -2 3.72 -2 1 C-1.34 0.67 -0.68 0.34 0 0 Z " fill="#C18F2E" transform="translate(195,287)"/>
<path d="M0 0 C3 2 3 2 6 4 C3.03 5.65 0.06 7.3 -3 9 C-2.5020163 5.26512223 -2.12508244 3.18762365 0 0 Z " fill="#E7CC6D" transform="translate(111,195)"/>
<path d="M0 0 C1.32 0 2.64 0 4 0 C4 1.32 4 2.64 4 4 C2.68 4 1.36 4 0 4 C0.33 4.99 0.66 5.98 1 7 C0.72428861 9.00875442 0.39764263 11.01178687 0 13 C0.66 13.33 1.32 13.66 2 14 C1.01 14.33 0.02 14.66 -1 15 C-1.02703381 13.06257659 -1.04641125 11.12504521 -1.0625 9.1875 C-1.07410156 8.10855469 -1.08570313 7.02960938 -1.09765625 5.91796875 C-1 3 -1 3 0 0 Z " fill="#E4BD57" transform="translate(152,264)"/>
<path d="M0 0 C3.43600559 5.15400839 4.24403837 8.77702167 4 15 C3.67 15 3.34 15 3 15 C3 13.35 3 11.7 3 10 C2.34 10 1.68 10 1 10 C0.63883954 8.5225254 0.28624952 7.04295325 -0.0625 5.5625 C-0.25972656 4.73878906 -0.45695312 3.91507812 -0.66015625 3.06640625 C-0.82837891 2.04353516 -0.82837891 2.04353516 -1 1 C-0.67 0.67 -0.34 0.34 0 0 Z " fill="#D1A341" transform="translate(88,260)"/>
<path d="M0 0 C2.64 1.98 5.28 3.96 8 6 C6.02 6.99 6.02 6.99 4 8 C1.75 7.125 1.75 7.125 0 6 C0 4.02 0 2.04 0 0 Z " fill="#E2C56B" transform="translate(312,116)"/>
<path d="M0 0 C2 1.0625 2 1.0625 4 3 C4.25 6.6875 4.25 6.6875 4 10 C3.34 9.34 2.68 8.68 2 8 C1.01 8.495 1.01 8.495 0 9 C0 6.03 0 3.06 0 0 Z " fill="#E3BA4F" transform="translate(87,246)"/>
<path d="M0 0 C2 3 2 3 2 5 C2.66 5.33 3.32 5.66 4 6 C3.34 6 2.68 6 2 6 C2.66 7.98 3.32 9.96 4 12 C2.68 11.67 1.36 11.34 0 11 C0 7.37 0 3.74 0 0 Z " fill="#EECF64" transform="translate(193,235)"/>
<path d="M0 0 C0.33 0 0.66 0 1 0 C1.06058594 0.96421875 1.12117188 1.9284375 1.18359375 2.921875 C1.26738281 4.18515625 1.35117188 5.4484375 1.4375 6.75 C1.51871094 8.00296875 1.59992188 9.2559375 1.68359375 10.546875 C1.92515522 13.18317553 2.24283934 15.48037294 3 18 C2.01 18.33 1.02 18.66 0 19 C0 12.73 0 6.46 0 0 Z " fill="#142D49" transform="translate(93,179)"/>
<path d="M0 0 C0.33 0 0.66 0 1 0 C1 5.61 1 11.22 1 17 C0.67 17 0.34 17 0 17 C-0.33 14.69 -0.66 12.38 -1 10 C-1.66 10 -2.32 10 -3 10 C-2.690625 9.46375 -2.38125 8.9275 -2.0625 8.375 C-0.82172561 5.6015043 -0.4090325 2.99957163 0 0 Z " fill="#EFC459" transform="translate(91,239)"/>
<path d="M0 0 C0.94875 0.04125 1.8975 0.0825 2.875 0.125 C2.545 1.445 2.215 2.765 1.875 4.125 C0.885 3.795 -0.105 3.465 -1.125 3.125 C-2.115 4.61 -2.115 4.61 -3.125 6.125 C-3.785 4.805 -4.445 3.485 -5.125 2.125 C-3.125 0.125 -3.125 0.125 0 0 Z " fill="#EBC960" transform="translate(237.125,203.875)"/>
<path d="M0 0 C3.81684226 1.55500981 6.19195732 4.03595495 9 7 C8.01 7.33 7.02 7.66 6 8 C4.62437146 6.71034824 3.29233607 5.37310707 2 4 C2 3.34 2 2.68 2 2 C1.01 1.67 0.02 1.34 -1 1 C-0.67 0.67 -0.34 0.34 0 0 Z " fill="#D4B35E" transform="translate(324,127)"/>
<path d="M0 0 C0.66 0 1.32 0 2 0 C2 0.66 2 1.32 2 2 C3.65 2.33 5.3 2.66 7 3 C7.33 4.65 7.66 6.3 8 8 C6.66102417 7.04956626 5.32894573 6.08940853 4 5.125 C3.2575 4.59132813 2.515 4.05765625 1.75 3.5078125 C1.1725 3.01023437 0.595 2.51265625 0 2 C0 1.34 0 0.68 0 0 Z " fill="#D8B65F" transform="translate(246,74)"/>
<path d="M0 0 C0.99 0.33 1.98 0.66 3 1 C2.01 2.98 1.02 4.96 0 7 C-1.32 6.67 -2.64 6.34 -4 6 C-2.68 4.02 -1.36 2.04 0 0 Z " fill="#243F65" transform="translate(206,388)"/>
<path d="M0 0 C3.3 0 6.6 0 10 0 C9.67 0.99 9.34 1.98 9 3 C6.03 2.67 3.06 2.34 0 2 C0 1.34 0 0.68 0 0 Z " fill="#C38E32" transform="translate(242,287)"/>
<path d="M0 0 C0.66 0 1.32 0 2 0 C2 2.64 2 5.28 2 8 C1.01 8.33 0.02 8.66 -1 9 C-2 7 -2 7 -2 4 C-1.34 4 -0.68 4 0 4 C0 2.68 0 1.36 0 0 Z " fill="#D4A845" transform="translate(154,274)"/>
<path d="M0 0 C1.98 1.65 3.96 3.3 6 5 C3.39417629 5.93065133 2.35801776 6.14917407 -0.25 5.0625 C-0.8275 4.711875 -1.405 4.36125 -2 4 C-1.34 2.68 -0.68 1.36 0 0 Z " fill="#B8934B" transform="translate(237,52)"/>
<path d="M0 0 C2.25245881 2.68841859 3.88213958 4.64641875 5 8 C3.68 8 2.36 8 1 8 C0.26919734 6.02253397 -0.39421747 4.01927511 -1 2 C-0.67 1.34 -0.34 0.68 0 0 Z " fill="#1D406C" transform="translate(222,387)"/>
<path d="M0 0 C1.15941038 3.47823115 0.70820884 5.45895578 0 9 C-1.32 9.33 -2.64 9.66 -4 10 C-2.99806563 6.20696275 -2.18975773 3.28463659 0 0 Z " fill="#26456E" transform="translate(146,380)"/>
<path d="M0 0 C0.33 0 0.66 0 1 0 C1.96321989 2.9872833 2.75870921 5.86321978 3 9 C1.125 12.0625 1.125 12.0625 -1 14 C-1.04254356 12.00045254 -1.04080783 9.99958364 -1 8 C-0.67 7.67 -0.34 7.34 0 7 C0.04092937 4.66702567 0.04241723 2.33294775 0 0 Z " fill="#D1A643" transform="translate(194,263)"/>
<path d="M0 0 C-0.66 1.32 -1.32 2.64 -2 4 C-3.98 4 -5.96 4 -8 4 C-3.375 0 -3.375 0 0 0 Z M-4 4 C-3.67 4.66 -3.34 5.32 -3 6 C-2.34 6.33 -1.68 6.66 -1 7 C-1.99 7.33 -2.98 7.66 -4 8 C-4 6.68 -4 5.36 -4 4 Z " fill="#E2D07A" transform="translate(129,185)"/>
<path d="M0 0 C0.99 0.66 1.98 1.32 3 2 C3.1875 4.625 3.1875 4.625 3 7 C0.69 5.35 -1.62 3.7 -4 2 C-3.34 1.67 -2.68 1.34 -2 1 C-1.34 1.33 -0.68 1.66 0 2 C0 1.34 0 0.68 0 0 Z " fill="#DBBB65" transform="translate(325,137)"/>
<path d="M0 0 C0.33 0 0.66 0 1 0 C1 3.3 1 6.6 1 10 C0.01 9.67 -0.98 9.34 -2 9 C-1.125 2.25 -1.125 2.25 0 0 Z " fill="#C48F30" transform="translate(197,299)"/>
<path d="M0 0 C0.33 0.99 0.66 1.98 1 3 C-1.66666667 4.33333333 -4.33333333 5.66666667 -7 7 C-7.66 6.34 -8.32 5.68 -9 5 C-6.03 3.35 -3.06 1.7 0 0 Z " fill="#EDCD72" transform="translate(96,204)"/>
<path d="M0 0 C0.33 0 0.66 0 1 0 C1 3.3 1 6.6 1 10 C0.34 10 -0.32 10 -1 10 C-0.979375 9.236875 -0.95875 8.47375 -0.9375 7.6875 C-0.87057159 4.89814214 -0.87057159 4.89814214 -2 2 C-1.34 2 -0.68 2 0 2 C0 1.34 0 0.68 0 0 Z " fill="#B38226" transform="translate(155,299)"/>
<path d="M0 0 C2 3.75 2 3.75 2 6 C0.35 6.66 -1.3 7.32 -3 8 C-1.125 1.125 -1.125 1.125 0 0 Z " fill="#C29138" transform="translate(239,276)"/>
</svg>
