<?xml version="1.0" encoding="UTF-8"?>
<svg version="1.1" xmlns="http://www.w3.org/2000/svg" width="308" height="302">
<path d="M0 0 C101.64 0 203.28 0 308 0 C308 99.66 308 199.32 308 302 C206.36 302 104.72 302 0 302 C0 202.34 0 102.68 0 0 Z " fill="#FEFEFE" transform="translate(0,0)"/>
<path d="M0 0 C3.16277272 1.58138636 3.43093689 4.32596051 4.625 7.5625 C5.07101563 8.76003906 5.51703125 9.95757812 5.9765625 11.19140625 C6.31429687 12.11824219 6.65203125 13.04507813 7 14 C7.67417969 13.83628906 8.34835938 13.67257813 9.04296875 13.50390625 C12.51367906 12.9124642 15.79322124 12.90460954 19.3125 12.9375 C20.56675781 12.94652344 21.82101563 12.95554688 23.11328125 12.96484375 C24.06589844 12.97644531 25.01851563 12.98804688 26 13 C27.65 9.04 29.3 5.08 31 1 C33.41498371 4.62247556 33.71344872 7.92125027 34.3125 12.125 C35.38204619 18.94317705 37.02130305 24.26094433 41 30 C42.92572521 33.85145043 42.04883218 38.80043252 42 43 C46.95 43 51.9 43 57 43 C57 43.33 57 43.66 57 44 C51.72 44 46.44 44 41 44 C42.46907001 46.93814003 44.59447806 47.3286226 47.5625 48.625 C49.08037109 49.29402344 49.08037109 49.29402344 50.62890625 49.9765625 C51.41136719 50.31429687 52.19382812 50.65203125 53 51 C49.35839192 52.21386936 48.66834531 51.6674695 45.3125 50.0625 C44.10013672 49.49208984 44.10013672 49.49208984 42.86328125 48.91015625 C42.24839844 48.60980469 41.63351563 48.30945313 41 48 C42.98 50.31 44.96 52.62 47 55 C46.505 55.99 46.505 55.99 46 57 C42.04 53.535 42.04 53.535 38 50 C37.34 51.32 36.68 52.64 36 54 C34.34375 55.703125 34.34375 55.703125 32.5 57.25 C31.8915625 57.77078125 31.283125 58.2915625 30.65625 58.828125 C29 60 29 60 27 60 C27.4125 61.06992188 27.825 62.13984375 28.25 63.2421875 C51.97848221 125.68336495 51.97848221 125.68336495 44 146 C43.36184656 147.34721283 42.70674629 148.68747118 42 150 C47.21468166 153.10661886 51.81229177 155.13770245 58 154 C62.91446189 152.5540922 66.18987596 150.97214885 69.5 147 C72.94695303 140.10609394 73.40093722 131.701682 71.19921875 124.3125 C68.94906801 119.4874345 65.97008155 115.70213525 62.5 111.6875 C55.22054265 103.03478943 52.00721845 93.76143012 52.44921875 82.43359375 C53.79831132 74.02329324 58.16433478 66.12674891 65 61 C68.375 60.625 68.375 60.625 71 61 C71.99 62.98 71.99 62.98 73 65 C70.06126702 69.18546819 70.06126702 69.18546819 68 71 C66.80375 71.165 65.6075 71.33 64.375 71.5 C63.26125 71.665 62.1475 71.83 61 72 C56.6519821 78.61303188 57.06391999 86.40156126 58 94 C60.01501396 102.28394626 64.40073184 108.10423405 69.91015625 114.45703125 C76.4842854 122.45657905 77.91449912 130.88970422 77 141 C75.36992424 146.91788374 72.60276052 151.01923414 68 155 C67.67 155.33 67.34 155.66 67 156 C67.59167969 156.01417969 68.18335937 156.02835938 68.79296875 156.04296875 C73.29922192 156.31496119 75.42637258 156.52197715 79 159.5 C79.66 160.325 80.32 161.15 81 162 C81.33 162.33 81.66 162.66 82 163 C82 166.96 82 170.92 82 175 C39.43 175 -3.14 175 -47 175 C-47 132.76 -47 90.52 -47 47 C-35.12643462 47 -35.12643462 47 -30.39414978 51.54090881 C-28.2653606 55.29580429 -28.59326388 58.84994074 -28.63110352 63.09545898 C-28.62733704 64.01460083 -28.62357056 64.93374268 -28.61968994 65.8807373 C-28.61325765 67.87505003 -28.61358734 69.8693934 -28.61987495 71.86370659 C-28.62897596 75.02027277 -28.61877255 78.1762438 -28.60325623 81.33277893 C-28.5631276 90.30655988 -28.56195546 99.28029466 -28.56420898 108.25415039 C-28.56426006 113.74426231 -28.5451065 119.23405323 -28.51487541 124.72407722 C-28.50403711 127.83354923 -28.51618862 130.94241205 -28.52870178 134.05186462 C-28.51979807 135.9596314 -28.50972393 137.86739319 -28.49829102 139.77514648 C-28.51290627 141.07123589 -28.51290627 141.07123589 -28.52781677 142.39350891 C-28.47914459 146.46134634 -28.31845106 148.4964552 -26.09385681 152.01405334 C-22.18102552 155.72523081 -18.49819223 155.11655966 -13.375 155.0625 C-12.17230469 155.05573242 -12.17230469 155.05573242 -10.9453125 155.04882812 C-8.96350994 155.03703168 -6.98174567 155.01909605 -5 155 C-5.763125 154.01 -6.52625 153.02 -7.3125 152 C-13.18217483 143.67906892 -13.98197008 135.67209379 -12.44140625 125.703125 C-12.16325328 124.2159025 -11.8694474 122.73154754 -11.5625 121.25 C-11.39274658 120.41927979 -11.22299316 119.58855957 -11.0480957 118.73266602 C-6.79301991 99.07085424 -0.32779043 79.70824953 7 61 C6.24332031 60.731875 5.48664062 60.46375 4.70703125 60.1875 C2.08672384 59.03804336 0.6522121 58.03071018 -1.3125 56 C-1.82425781 55.484375 -2.33601563 54.96875 -2.86328125 54.4375 C-4 53 -4 53 -4 51 C-5.65 51.99 -7.3 52.98 -9 54 C-8 52 -7 50 -6 48 C-11.94 50.475 -11.94 50.475 -18 53 C-18 52.34 -18 51.68 -18 51 C-16.5437455 50.32880451 -15.08492133 49.66318193 -13.625 49 C-12.81289063 48.62875 -12.00078125 48.2575 -11.1640625 47.875 C-9 47 -9 47 -7 47 C-7 46.01 -7 45.02 -7 44 C-11.95 44 -16.9 44 -22 44 C-22 43.67 -22 43.34 -22 43 C-17.38 43 -12.76 43 -8 43 C-8.1546875 40.586875 -8.1546875 40.586875 -8.3125 38.125 C-8.32324501 33.86460458 -7.90655216 31.30840846 -5.6875 27.6875 C-0.99292926 19.53868544 -0.96762956 9.1846482 0 0 Z " fill="#F7AB15" transform="translate(47,127)"/>
<path d="M0 0 C0 42.57 0 85.14 0 129 C-42.24 129 -84.48 129 -128 129 C-128 117 -128 117 -125.5625 113.8125 C-124.716875 113.214375 -123.87125 112.61625 -123 112 C-122.505 111.505 -122.505 111.505 -122 111 C-119.07440032 110.89065687 -116.1715435 110.84576378 -113.24511719 110.84228516 C-112.32641342 110.83720444 -111.40770966 110.83212372 -110.46116638 110.82688904 C-108.45861527 110.81615947 -106.45605196 110.80754951 -104.45348358 110.80076981 C-101.28470008 110.78901735 -98.11605515 110.76957319 -94.94732666 110.74765015 C-85.93514615 110.68591724 -76.92297812 110.6319969 -67.91064453 110.59863281 C-62.40454519 110.57769628 -56.89869526 110.54239687 -51.39273834 110.49787521 C-49.29242132 110.48370222 -47.19206014 110.47498986 -45.09169769 110.47182083 C-42.15168658 110.46691651 -39.21233769 110.44376926 -36.27246094 110.41650391 C-35.4036882 110.41951004 -34.53491547 110.42251617 -33.63981628 110.4256134 C-29.00236885 110.36169083 -25.64868942 110.18668323 -22 107 C-19.31109525 102.62132407 -19.72757568 97.7837504 -19.76049805 92.80688477 C-19.75747681 91.4303624 -19.75747681 91.4303624 -19.75439453 90.02603149 C-19.75085499 88.0377336 -19.75160876 86.04942443 -19.75617027 84.06112862 C-19.76176983 80.91268584 -19.75259449 77.76461056 -19.7389679 74.61619568 C-19.70186344 65.66623274 -19.6833088 56.71639515 -19.69458008 47.76635742 C-19.70043311 42.28798425 -19.68216231 36.81012906 -19.64869118 31.3318615 C-19.64074039 29.24631129 -19.64200976 27.16070459 -19.65271568 25.0751667 C-19.66705256 22.15704187 -19.65076211 19.24054487 -19.62768555 16.32250977 C-19.64533714 15.03416985 -19.64533714 15.03416985 -19.66334534 13.71980286 C-19.59809686 9.50732747 -19.28088242 6.81761431 -16.58576965 3.47984314 C-10.83495567 -2.03538772 -10.56468699 0 0 0 Z " fill="#59B9DF" transform="translate(308,173)"/>
<path d="M0 0 C42.9 0 85.8 0 130 0 C130 41.91 130 83.82 130 127 C117 127 117 127 113.75 124.625 C110.72417944 120.08626916 110.84255263 116.55779754 110.82641602 111.22338867 C110.819729 110.31429245 110.81304199 109.40519623 110.80615234 108.46855164 C110.79208165 106.49003132 110.78019406 104.51149458 110.77020454 102.53294945 C110.75382215 99.40189546 110.73058474 96.2709629 110.70530701 93.13996887 C110.63445958 84.23619621 110.57442727 75.33237347 110.52319336 66.4284668 C110.49139591 60.98610027 110.45011593 55.54387221 110.40299797 50.10161781 C110.38697977 48.02641607 110.37465737 45.95118239 110.36609077 43.87593651 C110.35393264 40.97207975 110.32977969 38.06854819 110.30297852 35.16479492 C110.30238937 34.30694397 110.30180023 33.44909302 110.30119324 32.56524658 C110.27300412 26.51162051 110.27300412 26.51162051 108 21 C103.66750418 18.25066394 98.6746584 18.7280426 93.71508789 18.76049805 C92.32393517 18.75747681 92.32393517 18.75747681 90.90467834 18.75439453 C88.89509949 18.75085479 86.88550949 18.75160901 84.87593269 18.75617027 C81.69388634 18.76176937 78.51220368 18.75259523 75.33018494 18.7389679 C66.28464112 18.70186151 57.23922133 18.68330908 48.19360352 18.69458008 C42.65687782 18.70043283 37.12066469 18.68216361 31.5840435 18.64869118 C29.47616445 18.64073991 27.36822949 18.64201041 25.26036263 18.65271568 C22.31111068 18.66705112 19.36346976 18.65076347 16.41430664 18.62768555 C15.11194061 18.64533714 15.11194061 18.64533714 13.78326416 18.66334534 C9.58952951 18.59906294 6.82452536 18.29773901 3.47410583 15.64826965 C-1.39451649 10.43692236 0 8.06482767 0 0 Z " fill="#F7AA12" transform="translate(178,0)"/>
<path d="M0 0 C1.7715873 -0.0010952 1.7715873 -0.0010952 3.57896423 -0.00221252 C6.80415059 0.00066646 10.02824085 0.02567485 13.25320959 0.06065726 C16.62840317 0.09199364 20.00362016 0.09485719 23.37893677 0.1007843 C29.76444217 0.11630157 36.14951763 0.15730067 42.53483403 0.20753175 C49.80684164 0.26349172 57.07887019 0.29092832 64.35103965 0.31600893 C79.30474091 0.36821894 94.25804027 0.4561193 109.21142578 0.56762695 C109.25706027 2.50230402 109.28975191 4.43728961 109.31689453 6.37231445 C109.33647217 7.44980957 109.3560498 8.52730469 109.3762207 9.63745117 C109.21142578 12.56762695 109.21142578 12.56762695 107.52392578 15.69262695 C102.37844827 19.86463575 97.53167511 19.85401224 91.18603516 19.82299805 C90.28625443 19.8266185 89.38647369 19.83023895 88.45942688 19.83396912 C86.51042188 19.8408499 84.56139766 19.84337103 82.61238098 19.84202194 C79.52722154 19.8410557 76.4424095 19.85400982 73.3572998 19.8710022 C64.58751084 19.91725129 55.81775832 19.94188939 47.04785156 19.94848633 C41.67975382 19.9534978 36.31202042 19.97772625 30.94404602 20.01381302 C28.89954311 20.02361657 26.85499013 20.02593995 24.81047058 20.02064133 C21.95218876 20.01357955 19.09499534 20.03083374 16.23681641 20.0534668 C15.39302933 20.04529434 14.54924225 20.03712189 13.67988586 20.02870178 C9.66039122 20.08534573 7.68450183 20.26704599 4.20983887 22.47476196 C0.44336463 26.41925278 1.0599104 30.23553034 1.05371094 35.42016602 C1.04863022 36.33740952 1.0435495 37.25465302 1.03831482 38.19969177 C1.02759709 40.19622079 1.01898244 42.19276192 1.01219559 44.18930817 C1.00042575 47.35004492 0.98097697 50.51064385 0.95907593 53.67132568 C0.89740136 62.65966196 0.84343349 71.64798526 0.81005859 80.63647461 C0.78910638 86.13076359 0.75379541 91.62480335 0.70930099 97.11894989 C0.69514184 99.21285822 0.68641875 101.30681067 0.68324661 103.40076447 C0.67833481 106.33327776 0.65516847 109.26513076 0.62792969 112.19750977 C0.63093582 113.06111618 0.63394196 113.9247226 0.63703918 114.8144989 C0.56823813 119.80543324 -0.04425442 123.23329144 -2.78857422 127.56762695 C-6.08338179 130.56290656 -8.68962742 130.70045829 -12.97216797 130.63793945 C-13.87378662 130.62778809 -14.77540527 130.61763672 -15.7043457 130.60717773 C-16.39214111 130.59412598 -17.07993652 130.58107422 -17.78857422 130.56762695 C-17.92875717 114.35609206 -18.03455099 98.14475386 -18.09944725 81.93275928 C-18.13038119 74.40516203 -18.17255197 66.87794143 -18.24121094 59.35058594 C-18.30102821 52.78945101 -18.33972676 46.22858885 -18.35310519 39.66718882 C-18.36092539 36.19303824 -18.37929226 32.71966797 -18.42295456 29.24576759 C-18.47130993 25.36698445 -18.47251256 21.48896357 -18.46972656 17.60986328 C-18.49129822 16.45899734 -18.51286987 15.30813141 -18.53509521 14.12239075 C-18.49647956 9.16600784 -18.41870573 6.44682204 -15.48278809 2.35046387 C-10.82548804 -0.61094457 -5.320757 -0.08617959 0 0 Z " fill="#5AB9DF" transform="translate(17.78857421875,0.432373046875)"/>
<path d="M0 0 C41.91 0 83.82 0 127 0 C127 0.33 127 0.66 127 1 C126.38192915 1.00146656 125.7638583 1.00293312 125.12705803 1.00444412 C110.07840419 1.04151813 95.03000957 1.10054047 79.98155022 1.18390274 C72.7041678 1.2236888 65.42689346 1.25608341 58.14941406 1.27099609 C51.80532497 1.28401496 45.46147369 1.31098528 39.11751854 1.35461307 C35.75930456 1.37722304 32.40138385 1.39291099 29.04308701 1.39188385 C25.29121881 1.3942455 21.54028217 1.42126326 17.78857422 1.45410156 C16.67870651 1.4490712 15.56883881 1.44404083 14.42533875 1.43885803 C8.31877642 1.52163542 4.67297188 1.94094602 0 6 C0 4.02 0 2.04 0 0 Z " fill="#D5EDF7" transform="translate(0,0)"/>
<path d="M0 0 C0.33 0 0.66 0 1 0 C1 42.57 1 85.14 1 129 C-0.98 129 -2.96 129 -5 129 C-4.35125916 128.42147781 -3.70251831 127.84295563 -3.03411865 127.24690247 C0.0419346 122.33684234 -0.42904608 117.73527302 -0.45410156 112.04956055 C-0.44376389 110.83938766 -0.43342621 109.62921478 -0.42277527 108.38237 C-0.39836616 105.07258399 -0.39150973 101.76363966 -0.39249516 98.45382285 C-0.38936293 94.99173879 -0.36373836 91.5298224 -0.34051514 88.06782532 C-0.29997509 81.51604009 -0.2796192 74.96435433 -0.26654124 68.41246301 C-0.25066437 60.95169853 -0.21224592 53.49110319 -0.17194796 46.03043687 C-0.0895764 30.6870082 -0.03546725 15.34361312 0 0 Z " fill="#69BFE2" transform="translate(307,173)"/>
<path d="M0 0 C1.98 0 3.96 0 6 0 C6 41.91 6 83.82 6 127 C5.67 127 5.34 127 5 127 C4.99576806 126.37401004 4.99153612 125.74802008 4.98717594 125.10306072 C4.88392868 109.88031762 4.77529983 94.65762329 4.66066074 79.43496227 C4.60535261 72.07343828 4.55187456 64.71190943 4.50268555 57.3503418 C4.4598142 50.93495988 4.41352874 44.51961331 4.36312145 38.10428602 C4.33654429 34.70656626 4.31169181 31.30885341 4.29092598 27.91109276 C4.26690245 24.1206103 4.23684488 20.33022137 4.20532227 16.53979492 C4.1995668 15.40979065 4.19381134 14.27978638 4.18788147 13.11553955 C4.17809265 12.08488876 4.16830383 11.05423798 4.15821838 9.99235535 C4.15176583 9.09545077 4.14531328 8.1985462 4.1386652 7.2744627 C4.08802486 4.83422233 4.08802486 4.83422233 3 2 C2.01 1.67 1.02 1.34 0 1 C0 0.67 0 0.34 0 0 Z " fill="#F7B22A" transform="translate(302,0)"/>
<path d="M0 0 C2.97 0 5.94 0 9 0 C4.5 3 4.5 3 0 6 C0 4.02 0 2.04 0 0 Z " fill="#F8FCFD" transform="translate(0,0)"/>
<path d="M0 0 C0.33 0 0.66 0 1 0 C1 2.64 1 5.28 1 8 C-0.98 8 -2.96 8 -5 8 C-4.360625 7.236875 -3.72125 6.47375 -3.0625 5.6875 C-0.85767219 3.11753287 -0.85767219 3.11753287 0 0 Z " fill="#F1F9FC" transform="translate(307,294)"/>
<path d="M0 0 C1.98 0 3.96 0 6 0 C6 2.31 6 4.62 6 7 C4.5 5.625 4.5 5.625 3 4 C3 3.34 3 2.68 3 2 C2.01 1.67 1.02 1.34 0 1 C0 0.67 0 0.34 0 0 Z " fill="#FEF9EE" transform="translate(302,0)"/>
</svg>
